# Tiled2Unity generated file. Do not modify by hand.
# Wavefront file for 'garden_mesh_0021.obj'

# Vertices (Count = 24)
v 0 -96 0
v -32 -96 0
v -32 -64 0
v 0 -64 0
v -128 -96 0
v -160 -96 0
v -160 -64 0
v -128 -64 0
v -288 -256 0
v -320 -256 0
v -320 -224 0
v -288 -224 0
v -448 -256 0
v -480 -256 0
v -480 -224 0
v -448 -224 0
v -288 -416 0
v -320 -416 0
v -320 -384 0
v -288 -384 0
v -448 -416 0
v -480 -416 0
v -480 -384 0
v -448 -384 0

# Texture cooridinates (Count = 4)
vt 0 0.5733333
vt 0.4266667 0.5733333
vt 0.4266667 1
vt 0 1

# Normal
vn 0 0 -1

# Mesh description
g garden_mesh_0021

# Faces
f 1/1/1 2/2/1 3/3/1 4/4/1
f 5/1/1 6/2/1 7/3/1 8/4/1
f 9/1/1 10/2/1 11/3/1 12/4/1
f 13/1/1 14/2/1 15/3/1 16/4/1
f 17/1/1 18/2/1 19/3/1 20/4/1
f 21/1/1 22/2/1 23/3/1 24/4/1

