# Tiled2Unity generated file. Do not modify by hand.
# Wavefront file for 'garden_mesh_0003.obj'

# Vertices (Count = 52)
v -288 -480 0
v -320 -480 0
v -320 -448 0
v -288 -448 0
v -320 -480 0
v -352 -480 0
v -352 -448 0
v -320 -448 0
v -352 -480 0
v -384 -480 0
v -384 -448 0
v -352 -448 0
v -416 -480 0
v -448 -480 0
v -448 -448 0
v -416 -448 0
v -448 -480 0
v -480 -480 0
v -480 -448 0
v -448 -448 0
v -480 -480 0
v -512 -480 0
v -512 -448 0
v -480 -448 0
v -288 -512 0
v -320 -512 0
v -320 -480 0
v -288 -480 0
v -320 -512 0
v -352 -512 0
v -352 -480 0
v -320 -480 0
v -352 -512 0
v -384 -512 0
v -384 -480 0
v -352 -480 0
v -384 -512 0
v -416 -512 0
v -416 -480 0
v -384 -480 0
v -416 -512 0
v -448 -512 0
v -448 -480 0
v -416 -480 0
v -448 -512 0
v -480 -512 0
v -480 -480 0
v -448 -480 0
v -480 -512 0
v -512 -512 0
v -512 -480 0
v -480 -480 0

# Texture cooridinates (Count = 12)
vt 0.25 0.625
vt 0.375 0.625
vt 0.375 0.75
vt 0.25 0.75
vt 0.25 0.5
vt 0.375 0.5
vt 0.75 0.75
vt 0.875 0.75
vt 0.875 0.875
vt 0.75 0.875
vt 0.125 0.625
vt 0.125 0.75

# Normal
vn 0 0 -1

# Mesh description
g garden_mesh_0003

# Faces
f 1/1/1 2/2/1 3/3/1 4/4/1
f 5/1/1 6/2/1 7/3/1 8/4/1
f 9/5/1 10/6/1 11/2/1 12/1/1
f 13/1/1 14/2/1 15/3/1 16/4/1
f 17/1/1 18/2/1 19/3/1 20/4/1
f 21/5/1 22/6/1 23/2/1 24/1/1
f 25/7/1 26/8/1 27/9/1 28/10/1
f 29/7/1 30/8/1 31/9/1 32/10/1
f 33/7/1 34/8/1 35/9/1 36/10/1
f 37/11/1 38/1/1 39/4/1 40/12/1
f 41/7/1 42/8/1 43/9/1 44/10/1
f 45/7/1 46/8/1 47/9/1 48/10/1
f 49/7/1 50/8/1 51/9/1 52/10/1

