# Tiled2Unity generated file. Do not modify by hand.
# Wavefront file for 'garden_mesh_0031.obj'

# Vertices (Count = 32)
v -32 -96 0
v -64 -96 0
v -64 -64 0
v -32 -64 0
v -192 -96 0
v -224 -96 0
v -224 -64 0
v -192 -64 0
v -352 -192 0
v -384 -192 0
v -384 -160 0
v -352 -160 0
v -160 -224 0
v -192 -224 0
v -192 -192 0
v -160 -192 0
v -256 -256 0
v -288 -256 0
v -288 -224 0
v -256 -224 0
v -64 -288 0
v -96 -288 0
v -96 -256 0
v -64 -256 0
v -288 -352 0
v -320 -352 0
v -320 -320 0
v -288 -320 0
v -192 -384 0
v -224 -384 0
v -224 -352 0
v -192 -352 0

# Texture cooridinates (Count = 10)
vt 0.4375 0.125
vt 0.5 0.125
vt 0.5 0.1875
vt 0.4375 0.1875
vt 0.125 0.375
vt 0.1875 0.375
vt 0.1875 0.4375
vt 0.125 0.4375
vt 0.25 0.375
vt 0.25 0.4375

# Normal
vn 0 0 -1

# Mesh description
g garden_mesh_0031

# Faces
f 1/1/1 2/2/1 3/3/1 4/4/1
f 5/5/1 6/6/1 7/7/1 8/8/1
f 9/6/1 10/9/1 11/10/1 12/7/1
f 13/5/1 14/6/1 15/7/1 16/8/1
f 17/5/1 18/6/1 19/7/1 20/8/1
f 21/6/1 22/9/1 23/10/1 24/7/1
f 25/6/1 26/9/1 27/10/1 28/7/1
f 29/1/1 30/2/1 31/3/1 32/4/1

