# Tiled2Unity generated file. Do not modify by hand.
# Wavefront file for 'garden_mesh_0028.obj'

# Vertices (Count = 32)
v -96 -96 0
v -128 -96 0
v -128 -64 0
v -96 -64 0
v -224 -96 0
v -256 -96 0
v -256 -64 0
v -224 -64 0
v -96 -224 0
v -128 -224 0
v -128 -192 0
v -96 -192 0
v -224 -224 0
v -256 -224 0
v -256 -192 0
v -224 -192 0
v -96 -352 0
v -128 -352 0
v -128 -320 0
v -96 -320 0
v -224 -352 0
v -256 -352 0
v -256 -320 0
v -224 -320 0
v -96 -480 0
v -128 -480 0
v -128 -448 0
v -96 -448 0
v -224 -480 0
v -256 -480 0
v -256 -448 0
v -224 -448 0

# Texture cooridinates (Count = 4)
vt 0 0.5733333
vt 0.4266667 0.5733333
vt 0.4266667 1
vt 0 1

# Normal
vn 0 0 -1

# Mesh description
g garden_mesh_0028

# Faces
f 1/1/1 2/2/1 3/3/1 4/4/1
f 5/1/1 6/2/1 7/3/1 8/4/1
f 9/1/1 10/2/1 11/3/1 12/4/1
f 13/1/1 14/2/1 15/3/1 16/4/1
f 17/1/1 18/2/1 19/3/1 20/4/1
f 21/1/1 22/2/1 23/3/1 24/4/1
f 25/1/1 26/2/1 27/3/1 28/4/1
f 29/1/1 30/2/1 31/3/1 32/4/1

