# Tiled2Unity generated file. Do not modify by hand.
# Wavefront file for 'garden_mesh_0019.obj'

# Vertices (Count = 460)
v 0 -32 0
v -32 -32 0
v -32 0 0
v 0 0 0
v -32 -32 0
v -64 -32 0
v -64 0 0
v -32 0 0
v -64 -32 0
v -96 -32 0
v -96 0 0
v -64 0 0
v -96 -32 0
v -128 -32 0
v -128 0 0
v -96 0 0
v -128 -32 0
v -160 -32 0
v -160 0 0
v -128 0 0
v -160 -32 0
v -192 -32 0
v -192 0 0
v -160 0 0
v -192 -32 0
v -224 -32 0
v -224 0 0
v -192 0 0
v -224 -32 0
v -256 -32 0
v -256 0 0
v -224 0 0
v -256 -32 0
v -288 -32 0
v -288 0 0
v -256 0 0
v -480 -32 0
v -512 -32 0
v -512 0 0
v -480 0 0
v 0 -64 0
v -32 -64 0
v -32 -32 0
v 0 -32 0
v -32 -64 0
v -64 -64 0
v -64 -32 0
v -32 -32 0
v -64 -64 0
v -96 -64 0
v -96 -32 0
v -64 -32 0
v -96 -64 0
v -128 -64 0
v -128 -32 0
v -96 -32 0
v -128 -64 0
v -160 -64 0
v -160 -32 0
v -128 -32 0
v -160 -64 0
v -192 -64 0
v -192 -32 0
v -160 -32 0
v -192 -64 0
v -224 -64 0
v -224 -32 0
v -192 -32 0
v -224 -64 0
v -256 -64 0
v -256 -32 0
v -224 -32 0
v -256 -64 0
v -288 -64 0
v -288 -32 0
v -256 -32 0
v -480 -64 0
v -512 -64 0
v -512 -32 0
v -480 -32 0
v -32 -96 0
v -64 -96 0
v -64 -64 0
v -32 -64 0
v -64 -96 0
v -96 -96 0
v -96 -64 0
v -64 -64 0
v -96 -96 0
v -128 -96 0
v -128 -64 0
v -96 -64 0
v -160 -96 0
v -192 -96 0
v -192 -64 0
v -160 -64 0
v -192 -96 0
v -224 -96 0
v -224 -64 0
v -192 -64 0
v -224 -96 0
v -256 -96 0
v -256 -64 0
v -224 -64 0
v -256 -96 0
v -288 -96 0
v -288 -64 0
v -256 -64 0
v -480 -96 0
v -512 -96 0
v -512 -64 0
v -480 -64 0
v -192 -128 0
v -224 -128 0
v -224 -96 0
v -192 -96 0
v -224 -128 0
v -256 -128 0
v -256 -96 0
v -224 -96 0
v -256 -128 0
v -288 -128 0
v -288 -96 0
v -256 -96 0
v -288 -128 0
v -320 -128 0
v -320 -96 0
v -288 -96 0
v -320 -128 0
v -352 -128 0
v -352 -96 0
v -320 -96 0
v -352 -128 0
v -384 -128 0
v -384 -96 0
v -352 -96 0
v -384 -128 0
v -416 -128 0
v -416 -96 0
v -384 -96 0
v -416 -128 0
v -448 -128 0
v -448 -96 0
v -416 -96 0
v -448 -128 0
v -480 -128 0
v -480 -96 0
v -448 -96 0
v -480 -128 0
v -512 -128 0
v -512 -96 0
v -480 -96 0
v -192 -160 0
v -224 -160 0
v -224 -128 0
v -192 -128 0
v -224 -160 0
v -256 -160 0
v -256 -128 0
v -224 -128 0
v -256 -160 0
v -288 -160 0
v -288 -128 0
v -256 -128 0
v -288 -160 0
v -320 -160 0
v -320 -128 0
v -288 -128 0
v -320 -160 0
v -352 -160 0
v -352 -128 0
v -320 -128 0
v -352 -160 0
v -384 -160 0
v -384 -128 0
v -352 -128 0
v -384 -160 0
v -416 -160 0
v -416 -128 0
v -384 -128 0
v -416 -160 0
v -448 -160 0
v -448 -128 0
v -416 -128 0
v -448 -160 0
v -480 -160 0
v -480 -128 0
v -448 -128 0
v -480 -160 0
v -512 -160 0
v -512 -128 0
v -480 -128 0
v -224 -192 0
v -256 -192 0
v -256 -160 0
v -224 -160 0
v -256 -192 0
v -288 -192 0
v -288 -160 0
v -256 -160 0
v -288 -192 0
v -320 -192 0
v -320 -160 0
v -288 -160 0
v -320 -192 0
v -352 -192 0
v -352 -160 0
v -320 -160 0
v -352 -192 0
v -384 -192 0
v -384 -160 0
v -352 -160 0
v -384 -192 0
v -416 -192 0
v -416 -160 0
v -384 -160 0
v -416 -192 0
v -448 -192 0
v -448 -160 0
v -416 -160 0
v -448 -192 0
v -480 -192 0
v -480 -160 0
v -448 -160 0
v -480 -192 0
v -512 -192 0
v -512 -160 0
v -480 -160 0
v -256 -224 0
v -288 -224 0
v -288 -192 0
v -256 -192 0
v -288 -224 0
v -320 -224 0
v -320 -192 0
v -288 -192 0
v -320 -224 0
v -352 -224 0
v -352 -192 0
v -320 -192 0
v -352 -224 0
v -384 -224 0
v -384 -192 0
v -352 -192 0
v -384 -224 0
v -416 -224 0
v -416 -192 0
v -384 -192 0
v -416 -224 0
v -448 -224 0
v -448 -192 0
v -416 -192 0
v -448 -224 0
v -480 -224 0
v -480 -192 0
v -448 -192 0
v -480 -224 0
v -512 -224 0
v -512 -192 0
v -480 -192 0
v -320 -256 0
v -352 -256 0
v -352 -224 0
v -320 -224 0
v -352 -256 0
v -384 -256 0
v -384 -224 0
v -352 -224 0
v -384 -256 0
v -416 -256 0
v -416 -224 0
v -384 -224 0
v -416 -256 0
v -448 -256 0
v -448 -224 0
v -416 -224 0
v -288 -288 0
v -320 -288 0
v -320 -256 0
v -288 -256 0
v -320 -288 0
v -352 -288 0
v -352 -256 0
v -320 -256 0
v -352 -288 0
v -384 -288 0
v -384 -256 0
v -352 -256 0
v -384 -288 0
v -416 -288 0
v -416 -256 0
v -384 -256 0
v -416 -288 0
v -448 -288 0
v -448 -256 0
v -416 -256 0
v -448 -288 0
v -480 -288 0
v -480 -256 0
v -448 -256 0
v -288 -320 0
v -320 -320 0
v -320 -288 0
v -288 -288 0
v -320 -320 0
v -352 -320 0
v -352 -288 0
v -320 -288 0
v -352 -320 0
v -384 -320 0
v -384 -288 0
v -352 -288 0
v -384 -320 0
v -416 -320 0
v -416 -288 0
v -384 -288 0
v -416 -320 0
v -448 -320 0
v -448 -288 0
v -416 -288 0
v -448 -320 0
v -480 -320 0
v -480 -288 0
v -448 -288 0
v -288 -352 0
v -320 -352 0
v -320 -320 0
v -288 -320 0
v -320 -352 0
v -352 -352 0
v -352 -320 0
v -320 -320 0
v -352 -352 0
v -384 -352 0
v -384 -320 0
v -352 -320 0
v -384 -352 0
v -416 -352 0
v -416 -320 0
v -384 -320 0
v -416 -352 0
v -448 -352 0
v -448 -320 0
v -416 -320 0
v -448 -352 0
v -480 -352 0
v -480 -320 0
v -448 -320 0
v -288 -384 0
v -320 -384 0
v -320 -352 0
v -288 -352 0
v -320 -384 0
v -352 -384 0
v -352 -352 0
v -320 -352 0
v -352 -384 0
v -384 -384 0
v -384 -352 0
v -352 -352 0
v -384 -384 0
v -416 -384 0
v -416 -352 0
v -384 -352 0
v -416 -384 0
v -448 -384 0
v -448 -352 0
v -416 -352 0
v -448 -384 0
v -480 -384 0
v -480 -352 0
v -448 -352 0
v -320 -416 0
v -352 -416 0
v -352 -384 0
v -320 -384 0
v -352 -416 0
v -384 -416 0
v -384 -384 0
v -352 -384 0
v -384 -416 0
v -416 -416 0
v -416 -384 0
v -384 -384 0
v -416 -416 0
v -448 -416 0
v -448 -384 0
v -416 -384 0
v -288 -448 0
v -320 -448 0
v -320 -416 0
v -288 -416 0
v -320 -448 0
v -352 -448 0
v -352 -416 0
v -320 -416 0
v -352 -448 0
v -384 -448 0
v -384 -416 0
v -352 -416 0
v -384 -448 0
v -416 -448 0
v -416 -416 0
v -384 -416 0
v -416 -448 0
v -448 -448 0
v -448 -416 0
v -416 -416 0
v -448 -448 0
v -480 -448 0
v -480 -416 0
v -448 -416 0
v -288 -480 0
v -320 -480 0
v -320 -448 0
v -288 -448 0
v -320 -480 0
v -352 -480 0
v -352 -448 0
v -320 -448 0
v -352 -480 0
v -384 -480 0
v -384 -448 0
v -352 -448 0
v -384 -480 0
v -416 -480 0
v -416 -448 0
v -384 -448 0
v -416 -480 0
v -448 -480 0
v -448 -448 0
v -416 -448 0
v -448 -480 0
v -480 -480 0
v -480 -448 0
v -448 -448 0
v -288 -512 0
v -320 -512 0
v -320 -480 0
v -288 -480 0
v -320 -512 0
v -352 -512 0
v -352 -480 0
v -320 -480 0
v -352 -512 0
v -384 -512 0
v -384 -480 0
v -352 -480 0
v -384 -512 0
v -416 -512 0
v -416 -480 0
v -384 -480 0
v -416 -512 0
v -448 -512 0
v -448 -480 0
v -416 -480 0
v -448 -512 0
v -480 -512 0
v -480 -480 0
v -448 -480 0

# Texture cooridinates (Count = 12)
vt 0.125 0.625
vt 0.25 0.625
vt 0.25 0.75
vt 0.125 0.75
vt 0.75 0.75
vt 0.875 0.75
vt 0.875 0.875
vt 0.75 0.875
vt 0.25 0.5
vt 0.375 0.5
vt 0.375 0.625
vt 0.375 0.75

# Normal
vn 0 0 -1

# Mesh description
g garden_mesh_0019

# Faces
f 1/1/1 2/2/1 3/3/1 4/4/1
f 5/5/1 6/6/1 7/7/1 8/8/1
f 9/5/1 10/6/1 11/7/1 12/8/1
f 13/5/1 14/6/1 15/7/1 16/8/1
f 17/1/1 18/2/1 19/3/1 20/4/1
f 21/5/1 22/6/1 23/7/1 24/8/1
f 25/5/1 26/6/1 27/7/1 28/8/1
f 29/5/1 30/6/1 31/7/1 32/8/1
f 33/9/1 34/10/1 35/11/1 36/2/1
f 37/9/1 38/10/1 39/11/1 40/2/1
f 41/1/1 42/2/1 43/3/1 44/4/1
f 45/5/1 46/6/1 47/7/1 48/8/1
f 49/5/1 50/6/1 51/7/1 52/8/1
f 53/5/1 54/6/1 55/7/1 56/8/1
f 57/1/1 58/2/1 59/3/1 60/4/1
f 61/5/1 62/6/1 63/7/1 64/8/1
f 65/5/1 66/6/1 67/7/1 68/8/1
f 69/5/1 70/6/1 71/7/1 72/8/1
f 73/9/1 74/10/1 75/11/1 76/2/1
f 77/9/1 78/10/1 79/11/1 80/2/1
f 81/2/1 82/11/1 83/12/1 84/3/1
f 85/9/1 86/10/1 87/11/1 88/2/1
f 89/9/1 90/10/1 91/11/1 92/2/1
f 93/2/1 94/11/1 95/12/1 96/3/1
f 97/5/1 98/6/1 99/7/1 100/8/1
f 101/5/1 102/6/1 103/7/1 104/8/1
f 105/9/1 106/10/1 107/11/1 108/2/1
f 109/9/1 110/10/1 111/11/1 112/2/1
f 113/2/1 114/11/1 115/12/1 116/3/1
f 117/5/1 118/6/1 119/7/1 120/8/1
f 121/5/1 122/6/1 123/7/1 124/8/1
f 125/9/1 126/10/1 127/11/1 128/2/1
f 129/2/1 130/11/1 131/12/1 132/3/1
f 133/2/1 134/11/1 135/12/1 136/3/1
f 137/2/1 138/11/1 139/12/1 140/3/1
f 141/2/1 142/11/1 143/12/1 144/3/1
f 145/9/1 146/10/1 147/11/1 148/2/1
f 149/5/1 150/6/1 151/7/1 152/8/1
f 153/2/1 154/11/1 155/12/1 156/3/1
f 157/5/1 158/6/1 159/7/1 160/8/1
f 161/5/1 162/6/1 163/7/1 164/8/1
f 165/5/1 166/6/1 167/7/1 168/8/1
f 169/5/1 170/6/1 171/7/1 172/8/1
f 173/5/1 174/6/1 175/7/1 176/8/1
f 177/5/1 178/6/1 179/7/1 180/8/1
f 181/5/1 182/6/1 183/7/1 184/8/1
f 185/5/1 186/6/1 187/7/1 188/8/1
f 189/5/1 190/6/1 191/7/1 192/8/1
f 193/2/1 194/11/1 195/12/1 196/3/1
f 197/5/1 198/6/1 199/7/1 200/8/1
f 201/5/1 202/6/1 203/7/1 204/8/1
f 205/5/1 206/6/1 207/7/1 208/8/1
f 209/5/1 210/6/1 211/7/1 212/8/1
f 213/5/1 214/6/1 215/7/1 216/8/1
f 217/5/1 218/6/1 219/7/1 220/8/1
f 221/5/1 222/6/1 223/7/1 224/8/1
f 225/5/1 226/6/1 227/7/1 228/8/1
f 229/2/1 230/11/1 231/12/1 232/3/1
f 233/1/1 234/2/1 235/3/1 236/4/1
f 237/5/1 238/6/1 239/7/1 240/8/1
f 241/5/1 242/6/1 243/7/1 244/8/1
f 245/5/1 246/6/1 247/7/1 248/8/1
f 249/5/1 250/6/1 251/7/1 252/8/1
f 253/1/1 254/2/1 255/3/1 256/4/1
f 257/2/1 258/11/1 259/12/1 260/3/1
f 261/9/1 262/10/1 263/11/1 264/2/1
f 265/9/1 266/10/1 267/11/1 268/2/1
f 269/9/1 270/10/1 271/11/1 272/2/1
f 273/9/1 274/10/1 275/11/1 276/2/1
f 277/1/1 278/2/1 279/3/1 280/4/1
f 281/5/1 282/6/1 283/7/1 284/8/1
f 285/5/1 286/6/1 287/7/1 288/8/1
f 289/5/1 290/6/1 291/7/1 292/8/1
f 293/5/1 294/6/1 295/7/1 296/8/1
f 297/1/1 298/2/1 299/3/1 300/4/1
f 301/1/1 302/2/1 303/3/1 304/4/1
f 305/5/1 306/6/1 307/7/1 308/8/1
f 309/5/1 310/6/1 311/7/1 312/8/1
f 313/5/1 314/6/1 315/7/1 316/8/1
f 317/5/1 318/6/1 319/7/1 320/8/1
f 321/1/1 322/2/1 323/3/1 324/4/1
f 325/1/1 326/2/1 327/3/1 328/4/1
f 329/5/1 330/6/1 331/7/1 332/8/1
f 333/5/1 334/6/1 335/7/1 336/8/1
f 337/5/1 338/6/1 339/7/1 340/8/1
f 341/5/1 342/6/1 343/7/1 344/8/1
f 345/1/1 346/2/1 347/3/1 348/4/1
f 349/1/1 350/2/1 351/3/1 352/4/1
f 353/5/1 354/6/1 355/7/1 356/8/1
f 357/5/1 358/6/1 359/7/1 360/8/1
f 361/5/1 362/6/1 363/7/1 364/8/1
f 365/5/1 366/6/1 367/7/1 368/8/1
f 369/1/1 370/2/1 371/3/1 372/4/1
f 373/9/1 374/10/1 375/11/1 376/2/1
f 377/9/1 378/10/1 379/11/1 380/2/1
f 381/9/1 382/10/1 383/11/1 384/2/1
f 385/9/1 386/10/1 387/11/1 388/2/1
f 389/1/1 390/2/1 391/3/1 392/4/1
f 393/5/1 394/6/1 395/7/1 396/8/1
f 397/5/1 398/6/1 399/7/1 400/8/1
f 401/5/1 402/6/1 403/7/1 404/8/1
f 405/5/1 406/6/1 407/7/1 408/8/1
f 409/1/1 410/2/1 411/3/1 412/4/1
f 413/1/1 414/2/1 415/3/1 416/4/1
f 417/5/1 418/6/1 419/7/1 420/8/1
f 421/5/1 422/6/1 423/7/1 424/8/1
f 425/5/1 426/6/1 427/7/1 428/8/1
f 429/5/1 430/6/1 431/7/1 432/8/1
f 433/1/1 434/2/1 435/3/1 436/4/1
f 437/1/1 438/2/1 439/3/1 440/4/1
f 441/5/1 442/6/1 443/7/1 444/8/1
f 445/5/1 446/6/1 447/7/1 448/8/1
f 449/5/1 450/6/1 451/7/1 452/8/1
f 453/5/1 454/6/1 455/7/1 456/8/1
f 457/1/1 458/2/1 459/3/1 460/4/1

