# Tiled2Unity generated file. Do not modify by hand.
# Wavefront file for 'garden_mesh_0043.obj'

# Vertices (Count = 48)
v 0 -160 0
v -32 -160 0
v -32 -128 0
v 0 -128 0
v -32 -160 0
v -64 -160 0
v -64 -128 0
v -32 -128 0
v -64 -160 0
v -96 -160 0
v -96 -128 0
v -64 -128 0
v 0 -192 0
v -32 -192 0
v -32 -160 0
v 0 -160 0
v -32 -192 0
v -64 -192 0
v -64 -160 0
v -32 -160 0
v -64 -192 0
v -96 -192 0
v -96 -160 0
v -64 -160 0
v 0 -224 0
v -32 -224 0
v -32 -192 0
v 0 -192 0
v -32 -224 0
v -64 -224 0
v -64 -192 0
v -32 -192 0
v -64 -224 0
v -96 -224 0
v -96 -192 0
v -64 -192 0
v 0 -256 0
v -32 -256 0
v -32 -224 0
v 0 -224 0
v -32 -256 0
v -64 -256 0
v -64 -224 0
v -32 -224 0
v -64 -256 0
v -96 -256 0
v -96 -224 0
v -64 -224 0

# Texture cooridinates (Count = 20)
vt 0.1428571 0.75
vt 0.2857143 0.75
vt 0.2857143 1
vt 0.1428571 1
vt 0.4285714 0.75
vt 0.4285714 1
vt 0.5714286 0.75
vt 0.5714286 1
vt 0.1428571 0.5
vt 0.2857143 0.5
vt 0.4285714 0.5
vt 0.5714286 0.5
vt 0.1428571 0.25
vt 0.2857143 0.25
vt 0.4285714 0.25
vt 0.5714286 0.25
vt 0.1428571 0
vt 0.2857143 0
vt 0.4285714 0
vt 0.5714286 0

# Normal
vn 0 0 -1

# Mesh description
g garden_mesh_0043

# Faces
f 1/1/1 2/2/1 3/3/1 4/4/1
f 5/2/1 6/5/1 7/6/1 8/3/1
f 9/5/1 10/7/1 11/8/1 12/6/1
f 13/9/1 14/10/1 15/2/1 16/1/1
f 17/10/1 18/11/1 19/5/1 20/2/1
f 21/11/1 22/12/1 23/7/1 24/5/1
f 25/13/1 26/14/1 27/10/1 28/9/1
f 29/14/1 30/15/1 31/11/1 32/10/1
f 33/15/1 34/16/1 35/12/1 36/11/1
f 37/17/1 38/18/1 39/14/1 40/13/1
f 41/18/1 42/19/1 43/15/1 44/14/1
f 45/19/1 46/20/1 47/16/1 48/15/1

