# Tiled2Unity generated file. Do not modify by hand.
# Wavefront file for 'garden_mesh_0039.obj'

# Vertices (Count = 32)
v -96 -128 0
v -128 -128 0
v -128 -96 0
v -96 -96 0
v -128 -128 0
v -160 -128 0
v -160 -96 0
v -128 -96 0
v -256 -128 0
v -288 -128 0
v -288 -96 0
v -256 -96 0
v -288 -128 0
v -320 -128 0
v -320 -96 0
v -288 -96 0
v -96 -160 0
v -128 -160 0
v -128 -128 0
v -96 -128 0
v -128 -160 0
v -160 -160 0
v -160 -128 0
v -128 -128 0
v -256 -160 0
v -288 -160 0
v -288 -128 0
v -256 -128 0
v -288 -160 0
v -320 -160 0
v -320 -128 0
v -288 -128 0

# Texture cooridinates (Count = 15)
vt 0.3333333 0.125
vt 0.4166667 0.125
vt 0.4166667 0.25
vt 0.3333333 0.25
vt 0.5 0.125
vt 0.5 0.25
vt 0.3333333 0.375
vt 0.4166667 0.375
vt 0.4166667 0.5
vt 0.3333333 0.5
vt 0.5 0.375
vt 0.5 0.5
vt 0.3333333 0
vt 0.4166667 0
vt 0.5 0

# Normal
vn 0 0 -1

# Mesh description
g garden_mesh_0039

# Faces
f 1/1/1 2/2/1 3/3/1 4/4/1
f 5/2/1 6/5/1 7/6/1 8/3/1
f 9/7/1 10/8/1 11/9/1 12/10/1
f 13/8/1 14/11/1 15/12/1 16/9/1
f 17/13/1 18/14/1 19/2/1 20/1/1
f 21/14/1 22/15/1 23/5/1 24/2/1
f 25/4/1 26/3/1 27/8/1 28/7/1
f 29/3/1 30/6/1 31/11/1 32/8/1

