# Tiled2Unity generated file. Do not modify by hand.
# Wavefront file for 'garden_mesh_0015.obj'

# Vertices (Count = 80)
v -288 -32 0
v -320 -32 0
v -320 0 0
v -288 0 0
v -320 -32 0
v -352 -32 0
v -352 0 0
v -320 0 0
v -352 -32 0
v -384 -32 0
v -384 0 0
v -352 0 0
v -384 -32 0
v -416 -32 0
v -416 0 0
v -384 0 0
v -416 -32 0
v -448 -32 0
v -448 0 0
v -416 0 0
v -448 -32 0
v -480 -32 0
v -480 0 0
v -448 0 0
v -480 -32 0
v -512 -32 0
v -512 0 0
v -480 0 0
v -288 -64 0
v -320 -64 0
v -320 -32 0
v -288 -32 0
v -320 -64 0
v -352 -64 0
v -352 -32 0
v -320 -32 0
v -352 -64 0
v -384 -64 0
v -384 -32 0
v -352 -32 0
v -384 -64 0
v -416 -64 0
v -416 -32 0
v -384 -32 0
v -416 -64 0
v -448 -64 0
v -448 -32 0
v -416 -32 0
v -448 -64 0
v -480 -64 0
v -480 -32 0
v -448 -32 0
v -480 -64 0
v -512 -64 0
v -512 -32 0
v -480 -32 0
v -288 -96 0
v -320 -96 0
v -320 -64 0
v -288 -64 0
v -320 -96 0
v -352 -96 0
v -352 -64 0
v -320 -64 0
v -352 -96 0
v -384 -96 0
v -384 -64 0
v -352 -64 0
v -416 -96 0
v -448 -96 0
v -448 -64 0
v -416 -64 0
v -448 -96 0
v -480 -96 0
v -480 -64 0
v -448 -64 0
v -480 -96 0
v -512 -96 0
v -512 -64 0
v -480 -64 0

# Texture cooridinates (Count = 12)
vt 0.75 0.75
vt 0.875 0.75
vt 0.875 0.875
vt 0.75 0.875
vt 0.125 0.625
vt 0.25 0.625
vt 0.25 0.75
vt 0.125 0.75
vt 0.375 0.625
vt 0.375 0.75
vt 0.25 0.5
vt 0.375 0.5

# Normal
vn 0 0 -1

# Mesh description
g garden_mesh_0015

# Faces
f 1/1/1 2/2/1 3/3/1 4/4/1
f 5/1/1 6/2/1 7/3/1 8/4/1
f 9/1/1 10/2/1 11/3/1 12/4/1
f 13/5/1 14/6/1 15/7/1 16/8/1
f 17/1/1 18/2/1 19/3/1 20/4/1
f 21/1/1 22/2/1 23/3/1 24/4/1
f 25/1/1 26/2/1 27/3/1 28/4/1
f 29/1/1 30/2/1 31/3/1 32/4/1
f 33/1/1 34/2/1 35/3/1 36/4/1
f 37/1/1 38/2/1 39/3/1 40/4/1
f 41/5/1 42/6/1 43/7/1 44/8/1
f 45/1/1 46/2/1 47/3/1 48/4/1
f 49/1/1 50/2/1 51/3/1 52/4/1
f 53/1/1 54/2/1 55/3/1 56/4/1
f 57/6/1 58/9/1 59/10/1 60/7/1
f 61/11/1 62/12/1 63/9/1 64/6/1
f 65/11/1 66/12/1 67/9/1 68/6/1
f 69/6/1 70/9/1 71/10/1 72/7/1
f 73/11/1 74/12/1 75/9/1 76/6/1
f 77/11/1 78/12/1 79/9/1 80/6/1

