# Tiled2Unity generated file. Do not modify by hand.
# Wavefront file for 'a_mesh_0021.obj'

# Vertices (Count = 16)
v -256 -384 0
v -288 -384 0
v -288 -352 0
v -256 -352 0
v -448 -384 0
v -480 -384 0
v -480 -352 0
v -448 -352 0
v -256 -416 0
v -288 -416 0
v -288 -384 0
v -256 -384 0
v -448 -416 0
v -480 -416 0
v -480 -384 0
v -448 -384 0

# Texture cooridinates (Count = 10)
vt 0.6875 0.6875
vt 0.75 0.6875
vt 0.75 0.75
vt 0.6875 0.75
vt 0.6875 0.5625
vt 0.75 0.5625
vt 0.75 0.625
vt 0.6875 0.625
vt 0.6875 0.5
vt 0.75 0.5

# Normal
vn 0 0 -1

# Mesh description
g a_mesh_0021

# Faces
f 1/1/1 2/2/1 3/3/1 4/4/1
f 5/5/1 6/6/1 7/7/1 8/8/1
f 9/8/1 10/7/1 11/2/1 12/1/1
f 13/9/1 14/10/1 15/6/1 16/5/1

