# Tiled2Unity generated file. Do not modify by hand.
# Wavefront file for 'a_mesh_0001.obj'

# Vertices (Count = 16)
v -448 -160 0
v -480 -160 0
v -480 -128 0
v -448 -128 0
v -480 -160 0
v -512 -160 0
v -512 -128 0
v -480 -128 0
v -448 -352 0
v -480 -352 0
v -480 -320 0
v -448 -320 0
v -480 -352 0
v -512 -352 0
v -512 -320 0
v -480 -320 0

# Texture cooridinates (Count = 4)
vt 0 0.5733333
vt 0.4266667 0.5733333
vt 0.4266667 1
vt 0 1

# Normal
vn 0 0 -1

# Mesh description
g a_mesh_0001

# Faces
f 1/1/1 2/2/1 3/3/1 4/4/1
f 5/1/1 6/2/1 7/3/1 8/4/1
f 9/1/1 10/2/1 11/3/1 12/4/1
f 13/1/1 14/2/1 15/3/1 16/4/1

