# Tiled2Unity generated file. Do not modify by hand.
# Wavefront file for 'a_mesh_0023.obj'

# Vertices (Count = 32)
v -256 -32 0
v -288 -32 0
v -288 0 0
v -256 0 0
v -448 -32 0
v -480 -32 0
v -480 0 0
v -448 0 0
v -256 -64 0
v -288 -64 0
v -288 -32 0
v -256 -32 0
v -448 -64 0
v -480 -64 0
v -480 -32 0
v -448 -32 0
v -256 -288 0
v -288 -288 0
v -288 -256 0
v -256 -256 0
v -448 -288 0
v -480 -288 0
v -480 -256 0
v -448 -256 0
v -256 -320 0
v -288 -320 0
v -288 -288 0
v -256 -288 0
v -448 -320 0
v -480 -320 0
v -480 -288 0
v -448 -288 0

# Texture cooridinates (Count = 10)
vt 0.6875 0.6875
vt 0.75 0.6875
vt 0.75 0.75
vt 0.6875 0.75
vt 0.6875 0.5625
vt 0.75 0.5625
vt 0.75 0.625
vt 0.6875 0.625
vt 0.6875 0.5
vt 0.75 0.5

# Normal
vn 0 0 -1

# Mesh description
g a_mesh_0023

# Faces
f 1/1/1 2/2/1 3/3/1 4/4/1
f 5/5/1 6/6/1 7/7/1 8/8/1
f 9/8/1 10/7/1 11/2/1 12/1/1
f 13/9/1 14/10/1 15/6/1 16/5/1
f 17/1/1 18/2/1 19/3/1 20/4/1
f 21/5/1 22/6/1 23/7/1 24/8/1
f 25/8/1 26/7/1 27/2/1 28/1/1
f 29/9/1 30/10/1 31/6/1 32/5/1

