# Tiled2Unity generated file. Do not modify by hand.
# Wavefront file for 'a_mesh_0019.obj'

# Vertices (Count = 80)
v -352 -32 0
v -384 -32 0
v -384 0 0
v -352 0 0
v -384 -32 0
v -416 -32 0
v -416 0 0
v -384 0 0
v -416 -32 0
v -448 -32 0
v -448 0 0
v -416 0 0
v -448 -32 0
v -480 -32 0
v -480 0 0
v -448 0 0
v -480 -32 0
v -512 -32 0
v -512 0 0
v -480 0 0
v -352 -64 0
v -384 -64 0
v -384 -32 0
v -352 -32 0
v -384 -64 0
v -416 -64 0
v -416 -32 0
v -384 -32 0
v -416 -64 0
v -448 -64 0
v -448 -32 0
v -416 -32 0
v -448 -64 0
v -480 -64 0
v -480 -32 0
v -448 -32 0
v -480 -64 0
v -512 -64 0
v -512 -32 0
v -480 -32 0
v -352 -96 0
v -384 -96 0
v -384 -64 0
v -352 -64 0
v -384 -96 0
v -416 -96 0
v -416 -64 0
v -384 -64 0
v -416 -96 0
v -448 -96 0
v -448 -64 0
v -416 -64 0
v -448 -96 0
v -480 -96 0
v -480 -64 0
v -448 -64 0
v -480 -96 0
v -512 -96 0
v -512 -64 0
v -480 -64 0
v -352 -128 0
v -384 -128 0
v -384 -96 0
v -352 -96 0
v -384 -128 0
v -416 -128 0
v -416 -96 0
v -384 -96 0
v -416 -128 0
v -448 -128 0
v -448 -96 0
v -416 -96 0
v -448 -128 0
v -480 -128 0
v -480 -96 0
v -448 -96 0
v -480 -128 0
v -512 -128 0
v -512 -96 0
v -480 -96 0

# Texture cooridinates (Count = 24)
vt 0 0.3636364
vt 0.09090909 0.3636364
vt 0.09090909 0.4545454
vt 0 0.4545454
vt 0.1818182 0.3636364
vt 0.1818182 0.4545454
vt 0.2727273 0.3636364
vt 0.2727273 0.4545454
vt 0.3636364 0.3636364
vt 0.3636364 0.4545454
vt 0.4545455 0.3636364
vt 0.4545455 0.4545454
vt 0 0.2727273
vt 0.09090909 0.2727273
vt 0.1818182 0.2727273
vt 0.2727273 0.2727273
vt 0.3636364 0.2727273
vt 0.4545455 0.2727273
vt 0 0.1818182
vt 0.09090909 0.1818182
vt 0.1818182 0.1818182
vt 0.2727273 0.1818182
vt 0.3636364 0.1818182
vt 0.4545455 0.1818182

# Normal
vn 0 0 -1

# Mesh description
g a_mesh_0019

# Faces
f 1/1/1 2/2/1 3/3/1 4/4/1
f 5/2/1 6/5/1 7/6/1 8/3/1
f 9/5/1 10/7/1 11/8/1 12/6/1
f 13/7/1 14/9/1 15/10/1 16/8/1
f 17/9/1 18/11/1 19/12/1 20/10/1
f 21/1/1 22/2/1 23/3/1 24/4/1
f 25/2/1 26/5/1 27/6/1 28/3/1
f 29/5/1 30/7/1 31/8/1 32/6/1
f 33/7/1 34/9/1 35/10/1 36/8/1
f 37/9/1 38/11/1 39/12/1 40/10/1
f 41/13/1 42/14/1 43/2/1 44/1/1
f 45/14/1 46/15/1 47/5/1 48/2/1
f 49/15/1 50/16/1 51/7/1 52/5/1
f 53/16/1 54/17/1 55/9/1 56/7/1
f 57/17/1 58/18/1 59/11/1 60/9/1
f 61/19/1 62/20/1 63/14/1 64/13/1
f 65/20/1 66/21/1 67/15/1 68/14/1
f 69/21/1 70/22/1 71/16/1 72/15/1
f 73/22/1 74/23/1 75/17/1 76/16/1
f 77/23/1 78/24/1 79/18/1 80/17/1

