# Tiled2Unity generated file. Do not modify by hand.
# Wavefront file for 'a_mesh_0020.obj'

# Vertices (Count = 96)
v 0 -32 0
v -32 -32 0
v -32 0 0
v 0 0 0
v -32 -32 0
v -64 -32 0
v -64 0 0
v -32 0 0
v -64 -32 0
v -96 -32 0
v -96 0 0
v -64 0 0
v -96 -32 0
v -128 -32 0
v -128 0 0
v -96 0 0
v -128 -32 0
v -160 -32 0
v -160 0 0
v -128 0 0
v -160 -32 0
v -192 -32 0
v -192 0 0
v -160 0 0
v 0 -64 0
v -32 -64 0
v -32 -32 0
v 0 -32 0
v -32 -64 0
v -64 -64 0
v -64 -32 0
v -32 -32 0
v -64 -64 0
v -96 -64 0
v -96 -32 0
v -64 -32 0
v -96 -64 0
v -128 -64 0
v -128 -32 0
v -96 -32 0
v -128 -64 0
v -160 -64 0
v -160 -32 0
v -128 -32 0
v -160 -64 0
v -192 -64 0
v -192 -32 0
v -160 -32 0
v 0 -96 0
v -32 -96 0
v -32 -64 0
v 0 -64 0
v -32 -96 0
v -64 -96 0
v -64 -64 0
v -32 -64 0
v -64 -96 0
v -96 -96 0
v -96 -64 0
v -64 -64 0
v -96 -96 0
v -128 -96 0
v -128 -64 0
v -96 -64 0
v -128 -96 0
v -160 -96 0
v -160 -64 0
v -128 -64 0
v -160 -96 0
v -192 -96 0
v -192 -64 0
v -160 -64 0
v 0 -128 0
v -32 -128 0
v -32 -96 0
v 0 -96 0
v -32 -128 0
v -64 -128 0
v -64 -96 0
v -32 -96 0
v -64 -128 0
v -96 -128 0
v -96 -96 0
v -64 -96 0
v -96 -128 0
v -128 -128 0
v -128 -96 0
v -96 -96 0
v -128 -128 0
v -160 -128 0
v -160 -96 0
v -128 -96 0
v -160 -128 0
v -192 -128 0
v -192 -96 0
v -160 -96 0

# Texture cooridinates (Count = 28)
vt 0.4545455 0.3636364
vt 0.5454546 0.3636364
vt 0.5454546 0.4545454
vt 0.4545455 0.4545454
vt 0.6363636 0.3636364
vt 0.6363636 0.4545454
vt 0.7272727 0.3636364
vt 0.7272727 0.4545454
vt 0.8181818 0.3636364
vt 0.8181818 0.4545454
vt 0.9090909 0.3636364
vt 0.9090909 0.4545454
vt 1 0.3636364
vt 1 0.4545454
vt 0.4545455 0.2727273
vt 0.5454546 0.2727273
vt 0.6363636 0.2727273
vt 0.7272727 0.2727273
vt 0.8181818 0.2727273
vt 0.9090909 0.2727273
vt 1 0.2727273
vt 0.4545455 0.1818182
vt 0.5454546 0.1818182
vt 0.6363636 0.1818182
vt 0.7272727 0.1818182
vt 0.8181818 0.1818182
vt 0.9090909 0.1818182
vt 1 0.1818182

# Normal
vn 0 0 -1

# Mesh description
g a_mesh_0020

# Faces
f 1/1/1 2/2/1 3/3/1 4/4/1
f 5/2/1 6/5/1 7/6/1 8/3/1
f 9/5/1 10/7/1 11/8/1 12/6/1
f 13/7/1 14/9/1 15/10/1 16/8/1
f 17/9/1 18/11/1 19/12/1 20/10/1
f 21/11/1 22/13/1 23/14/1 24/12/1
f 25/1/1 26/2/1 27/3/1 28/4/1
f 29/2/1 30/5/1 31/6/1 32/3/1
f 33/5/1 34/7/1 35/8/1 36/6/1
f 37/7/1 38/9/1 39/10/1 40/8/1
f 41/9/1 42/11/1 43/12/1 44/10/1
f 45/11/1 46/13/1 47/14/1 48/12/1
f 49/15/1 50/16/1 51/2/1 52/1/1
f 53/16/1 54/17/1 55/5/1 56/2/1
f 57/17/1 58/18/1 59/7/1 60/5/1
f 61/18/1 62/19/1 63/9/1 64/7/1
f 65/19/1 66/20/1 67/11/1 68/9/1
f 69/20/1 70/21/1 71/13/1 72/11/1
f 73/22/1 74/23/1 75/16/1 76/15/1
f 77/23/1 78/24/1 79/17/1 80/16/1
f 81/24/1 82/25/1 83/18/1 84/17/1
f 85/25/1 86/26/1 87/19/1 88/18/1
f 89/26/1 90/27/1 91/20/1 92/19/1
f 93/27/1 94/28/1 95/21/1 96/20/1

