# Tiled2Unity generated file. Do not modify by hand.
# Wavefront file for 'gm_mesh_0008.obj'

# Vertices (Count = 16)
v 0 -32 0
v -32 -32 0
v -32 0 0
v 0 0 0
v -32 -32 0
v -64 -32 0
v -64 0 0
v -32 0 0
v -64 -32 0
v -96 -32 0
v -96 0 0
v -64 0 0
v -96 -32 0
v -128 -32 0
v -128 0 0
v -96 0 0

# Texture cooridinates (Count = 4)
vt 0.8125 0.1875
vt 0.875 0.1875
vt 0.875 0.25
vt 0.8125 0.25

# Normal
vn 0 0 -1

# Mesh description
g gm_mesh_0008

# Faces
f 1/1/1 2/2/1 3/3/1 4/4/1
f 5/1/1 6/2/1 7/3/1 8/4/1
f 9/1/1 10/2/1 11/3/1 12/4/1
f 13/1/1 14/2/1 15/3/1 16/4/1

