# Tiled2Unity generated file. Do not modify by hand.
# Wavefront file for 'gm_mesh_0014.obj'

# Vertices (Count = 28)
v 0 -384 0
v -32 -384 0
v -32 -352 0
v 0 -352 0
v -32 -384 0
v -64 -384 0
v -64 -352 0
v -32 -352 0
v -64 -384 0
v -96 -384 0
v -96 -352 0
v -64 -352 0
v -96 -384 0
v -128 -384 0
v -128 -352 0
v -96 -352 0
v -160 -448 0
v -192 -448 0
v -192 -416 0
v -160 -416 0
v -160 -480 0
v -192 -480 0
v -192 -448 0
v -160 -448 0
v -160 -512 0
v -192 -512 0
v -192 -480 0
v -160 -480 0

# Texture cooridinates (Count = 14)
vt 0.125 0.25
vt 0.1875 0.25
vt 0.1875 0.3125
vt 0.125 0.3125
vt 0.25 0.25
vt 0.25 0.3125
vt 0.9375 0.5
vt 1 0.5
vt 1 0.5625
vt 0.9375 0.5625
vt 0.9375 0.4375
vt 1 0.4375
vt 0.9375 0.375
vt 1 0.375

# Normal
vn 0 0 -1

# Mesh description
g gm_mesh_0014

# Faces
f 1/1/1 2/2/1 3/3/1 4/4/1
f 5/2/1 6/5/1 7/6/1 8/3/1
f 9/1/1 10/2/1 11/3/1 12/4/1
f 13/2/1 14/5/1 15/6/1 16/3/1
f 17/7/1 18/8/1 19/9/1 20/10/1
f 21/11/1 22/12/1 23/8/1 24/7/1
f 25/13/1 26/14/1 27/12/1 28/11/1

