# Tiled2Unity generated file. Do not modify by hand.
# Wavefront file for 'gm_mesh_0009.obj'

# Vertices (Count = 20)
v -416 -384 0
v -448 -384 0
v -448 -352 0
v -416 -352 0
v -416 -416 0
v -448 -416 0
v -448 -384 0
v -416 -384 0
v -416 -448 0
v -448 -448 0
v -448 -416 0
v -416 -416 0
v -416 -480 0
v -448 -480 0
v -448 -448 0
v -416 -448 0
v -416 -512 0
v -448 -512 0
v -448 -480 0
v -416 -480 0

# Texture cooridinates (Count = 8)
vt 0.25 0.8125
vt 0.3125 0.8125
vt 0.3125 0.875
vt 0.25 0.875
vt 0.0625 0.8125
vt 0.125 0.8125
vt 0.125 0.875
vt 0.0625 0.875

# Normal
vn 0 0 -1

# Mesh description
g gm_mesh_0009

# Faces
f 1/1/1 2/2/1 3/3/1 4/4/1
f 5/1/1 6/2/1 7/3/1 8/4/1
f 9/5/1 10/6/1 11/7/1 12/8/1
f 13/5/1 14/6/1 15/7/1 16/8/1
f 17/5/1 18/6/1 19/7/1 20/8/1

