# Tiled2Unity generated file. Do not modify by hand.
# Wavefront file for 'gm_mesh_0012.obj'

# Vertices (Count = 24)
v 0 -32 0
v -32 -32 0
v -32 0 0
v 0 0 0
v -32 -32 0
v -64 -32 0
v -64 0 0
v -32 0 0
v -64 -32 0
v -96 -32 0
v -96 0 0
v -64 0 0
v -96 -32 0
v -128 -32 0
v -128 0 0
v -96 0 0
v -192 -32 0
v -224 -32 0
v -224 0 0
v -192 0 0
v -192 -64 0
v -224 -64 0
v -224 -32 0
v -192 -32 0

# Texture cooridinates (Count = 10)
vt 0.8125 0
vt 0.875 0
vt 0.875 0.0625
vt 0.8125 0.0625
vt 0.5 0.8125
vt 0.5625 0.8125
vt 0.5625 0.875
vt 0.5 0.875
vt 0.5 0.75
vt 0.5625 0.75

# Normal
vn 0 0 -1

# Mesh description
g gm_mesh_0012

# Faces
f 1/1/1 2/2/1 3/3/1 4/4/1
f 5/1/1 6/2/1 7/3/1 8/4/1
f 9/1/1 10/2/1 11/3/1 12/4/1
f 13/1/1 14/2/1 15/3/1 16/4/1
f 17/5/1 18/6/1 19/7/1 20/8/1
f 21/9/1 22/10/1 23/6/1 24/5/1

