# Tiled2Unity generated file. Do not modify by hand.
# Wavefront file for 'class_mesh_0011.obj'

# Vertices (Count = 84)
v 0 -64 0
v -32 -64 0
v -32 -32 0
v 0 -32 0
v 0 -96 0
v -32 -96 0
v -32 -64 0
v 0 -64 0
v -64 -96 0
v -96 -96 0
v -96 -64 0
v -64 -64 0
v -96 -96 0
v -128 -96 0
v -128 -64 0
v -96 -64 0
v 0 -128 0
v -32 -128 0
v -32 -96 0
v 0 -96 0
v -64 -128 0
v -96 -128 0
v -96 -96 0
v -64 -96 0
v -96 -128 0
v -128 -128 0
v -128 -96 0
v -96 -96 0
v 0 -160 0
v -32 -160 0
v -32 -128 0
v 0 -128 0
v -64 -160 0
v -96 -160 0
v -96 -128 0
v -64 -128 0
v -96 -160 0
v -128 -160 0
v -128 -128 0
v -96 -128 0
v 0 -192 0
v -32 -192 0
v -32 -160 0
v 0 -160 0
v -64 -192 0
v -96 -192 0
v -96 -160 0
v -64 -160 0
v -96 -192 0
v -128 -192 0
v -128 -160 0
v -96 -160 0
v 0 -224 0
v -32 -224 0
v -32 -192 0
v 0 -192 0
v -64 -224 0
v -96 -224 0
v -96 -192 0
v -64 -192 0
v -96 -224 0
v -128 -224 0
v -128 -192 0
v -96 -192 0
v 0 -256 0
v -32 -256 0
v -32 -224 0
v 0 -224 0
v -64 -256 0
v -96 -256 0
v -96 -224 0
v -64 -224 0
v -96 -256 0
v -128 -256 0
v -128 -224 0
v -96 -224 0
v 0 -288 0
v -32 -288 0
v -32 -256 0
v 0 -256 0
v 0 -320 0
v -32 -320 0
v -32 -288 0
v 0 -288 0

# Texture cooridinates (Count = 10)
vt 0.75 0.25
vt 0.8125 0.25
vt 0.8125 0.3125
vt 0.75 0.3125
vt 0.875 0.0625
vt 0.9375 0.0625
vt 0.9375 0.125
vt 0.875 0.125
vt 0.875 0
vt 0.9375 0

# Normal
vn 0 0 -1

# Mesh description
g class_mesh_0011

# Faces
f 1/1/1 2/2/1 3/3/1 4/4/1
f 5/5/1 6/6/1 7/7/1 8/8/1
f 9/5/1 10/6/1 11/7/1 12/8/1
f 13/5/1 14/6/1 15/7/1 16/8/1
f 17/9/1 18/10/1 19/6/1 20/5/1
f 21/9/1 22/10/1 23/6/1 24/5/1
f 25/9/1 26/10/1 27/6/1 28/5/1
f 29/5/1 30/6/1 31/7/1 32/8/1
f 33/5/1 34/6/1 35/7/1 36/8/1
f 37/5/1 38/6/1 39/7/1 40/8/1
f 41/9/1 42/10/1 43/6/1 44/5/1
f 45/9/1 46/10/1 47/6/1 48/5/1
f 49/9/1 50/10/1 51/6/1 52/5/1
f 53/5/1 54/6/1 55/7/1 56/8/1
f 57/5/1 58/6/1 59/7/1 60/8/1
f 61/5/1 62/6/1 63/7/1 64/8/1
f 65/9/1 66/10/1 67/6/1 68/5/1
f 69/9/1 70/10/1 71/6/1 72/5/1
f 73/9/1 74/10/1 75/6/1 76/5/1
f 77/5/1 78/6/1 79/7/1 80/8/1
f 81/9/1 82/10/1 83/6/1 84/5/1

