# Tiled2Unity generated file. Do not modify by hand.
# Wavefront file for 'class_mesh_0013.obj'

# Vertices (Count = 68)
v 0 -32 0
v -32 -32 0
v -32 0 0
v 0 0 0
v -32 -32 0
v -64 -32 0
v -64 0 0
v -32 0 0
v -64 -32 0
v -96 -32 0
v -96 0 0
v -64 0 0
v -96 -32 0
v -128 -32 0
v -128 0 0
v -96 0 0
v -128 -32 0
v -160 -32 0
v -160 0 0
v -128 0 0
v 0 -64 0
v -32 -64 0
v -32 -32 0
v 0 -32 0
v 0 -96 0
v -32 -96 0
v -32 -64 0
v 0 -64 0
v 0 -128 0
v -32 -128 0
v -32 -96 0
v 0 -96 0
v -64 -128 0
v -96 -128 0
v -96 -96 0
v -64 -96 0
v -96 -128 0
v -128 -128 0
v -128 -96 0
v -96 -96 0
v 0 -192 0
v -32 -192 0
v -32 -160 0
v 0 -160 0
v -64 -192 0
v -96 -192 0
v -96 -160 0
v -64 -160 0
v -96 -192 0
v -128 -192 0
v -128 -160 0
v -96 -160 0
v 0 -256 0
v -32 -256 0
v -32 -224 0
v 0 -224 0
v -64 -256 0
v -96 -256 0
v -96 -224 0
v -64 -224 0
v -96 -256 0
v -128 -256 0
v -128 -224 0
v -96 -224 0
v 0 -320 0
v -32 -320 0
v -32 -288 0
v 0 -288 0

# Texture cooridinates (Count = 14)
vt 1 0.375
vt 1 0.4375
vt 0.9375 0.4375
vt 0.9375 0.375
vt 0.75 0.25
vt 0.8125 0.25
vt 0.8125 0.3125
vt 0.75 0.3125
vt 0.75 0.1875
vt 0.8125 0.1875
vt 0.8125 0
vt 0.875 0
vt 0.875 0.0625
vt 0.8125 0.0625

# Normal
vn 0 0 -1

# Mesh description
g class_mesh_0013

# Faces
f 1/1/1 2/2/1 3/3/1 4/4/1
f 5/1/1 6/2/1 7/3/1 8/4/1
f 9/1/1 10/2/1 11/3/1 12/4/1
f 13/1/1 14/2/1 15/3/1 16/4/1
f 17/1/1 18/2/1 19/3/1 20/4/1
f 21/5/1 22/6/1 23/7/1 24/8/1
f 25/9/1 26/10/1 27/6/1 28/5/1
f 29/11/1 30/12/1 31/13/1 32/14/1
f 33/11/1 34/12/1 35/13/1 36/14/1
f 37/11/1 38/12/1 39/13/1 40/14/1
f 41/11/1 42/12/1 43/13/1 44/14/1
f 45/11/1 46/12/1 47/13/1 48/14/1
f 49/11/1 50/12/1 51/13/1 52/14/1
f 53/11/1 54/12/1 55/13/1 56/14/1
f 57/11/1 58/12/1 59/13/1 60/14/1
f 61/11/1 62/12/1 63/13/1 64/14/1
f 65/11/1 66/12/1 67/13/1 68/14/1

