# Tiled2Unity generated file. Do not modify by hand.
# Wavefront file for 'class_mesh_0004.obj'

# Vertices (Count = 280)
v 0 -32 0
v -32 -32 0
v -32 0 0
v 0 0 0
v -32 -32 0
v -64 -32 0
v -64 0 0
v -32 0 0
v -64 -32 0
v -96 -32 0
v -96 0 0
v -64 0 0
v -96 -32 0
v -128 -32 0
v -128 0 0
v -96 0 0
v -128 -32 0
v -160 -32 0
v -160 0 0
v -128 0 0
v 0 -64 0
v -32 -64 0
v -32 -32 0
v 0 -32 0
v -32 -64 0
v -64 -64 0
v -64 -32 0
v -32 -32 0
v -64 -64 0
v -96 -64 0
v -96 -32 0
v -64 -32 0
v -96 -64 0
v -128 -64 0
v -128 -32 0
v -96 -32 0
v -128 -64 0
v -160 -64 0
v -160 -32 0
v -128 -32 0
v 0 -96 0
v -32 -96 0
v -32 -64 0
v 0 -64 0
v -32 -96 0
v -64 -96 0
v -64 -64 0
v -32 -64 0
v -64 -96 0
v -96 -96 0
v -96 -64 0
v -64 -64 0
v -96 -96 0
v -128 -96 0
v -128 -64 0
v -96 -64 0
v -128 -96 0
v -160 -96 0
v -160 -64 0
v -128 -64 0
v 0 -128 0
v -32 -128 0
v -32 -96 0
v 0 -96 0
v -32 -128 0
v -64 -128 0
v -64 -96 0
v -32 -96 0
v -64 -128 0
v -96 -128 0
v -96 -96 0
v -64 -96 0
v -96 -128 0
v -128 -128 0
v -128 -96 0
v -96 -96 0
v -128 -128 0
v -160 -128 0
v -160 -96 0
v -128 -96 0
v 0 -160 0
v -32 -160 0
v -32 -128 0
v 0 -128 0
v -32 -160 0
v -64 -160 0
v -64 -128 0
v -32 -128 0
v -64 -160 0
v -96 -160 0
v -96 -128 0
v -64 -128 0
v -96 -160 0
v -128 -160 0
v -128 -128 0
v -96 -128 0
v -128 -160 0
v -160 -160 0
v -160 -128 0
v -128 -128 0
v 0 -192 0
v -32 -192 0
v -32 -160 0
v 0 -160 0
v -32 -192 0
v -64 -192 0
v -64 -160 0
v -32 -160 0
v -64 -192 0
v -96 -192 0
v -96 -160 0
v -64 -160 0
v -96 -192 0
v -128 -192 0
v -128 -160 0
v -96 -160 0
v -128 -192 0
v -160 -192 0
v -160 -160 0
v -128 -160 0
v 0 -224 0
v -32 -224 0
v -32 -192 0
v 0 -192 0
v -32 -224 0
v -64 -224 0
v -64 -192 0
v -32 -192 0
v -64 -224 0
v -96 -224 0
v -96 -192 0
v -64 -192 0
v -96 -224 0
v -128 -224 0
v -128 -192 0
v -96 -192 0
v -128 -224 0
v -160 -224 0
v -160 -192 0
v -128 -192 0
v 0 -256 0
v -32 -256 0
v -32 -224 0
v 0 -224 0
v -32 -256 0
v -64 -256 0
v -64 -224 0
v -32 -224 0
v -64 -256 0
v -96 -256 0
v -96 -224 0
v -64 -224 0
v -96 -256 0
v -128 -256 0
v -128 -224 0
v -96 -224 0
v -128 -256 0
v -160 -256 0
v -160 -224 0
v -128 -224 0
v 0 -288 0
v -32 -288 0
v -32 -256 0
v 0 -256 0
v -32 -288 0
v -64 -288 0
v -64 -256 0
v -32 -256 0
v -64 -288 0
v -96 -288 0
v -96 -256 0
v -64 -256 0
v -96 -288 0
v -128 -288 0
v -128 -256 0
v -96 -256 0
v -128 -288 0
v -160 -288 0
v -160 -256 0
v -128 -256 0
v 0 -320 0
v -32 -320 0
v -32 -288 0
v 0 -288 0
v -32 -320 0
v -64 -320 0
v -64 -288 0
v -32 -288 0
v -64 -320 0
v -96 -320 0
v -96 -288 0
v -64 -288 0
v -96 -320 0
v -128 -320 0
v -128 -288 0
v -96 -288 0
v -128 -320 0
v -160 -320 0
v -160 -288 0
v -128 -288 0
v 0 -352 0
v -32 -352 0
v -32 -320 0
v 0 -320 0
v -32 -352 0
v -64 -352 0
v -64 -320 0
v -32 -320 0
v -64 -352 0
v -96 -352 0
v -96 -320 0
v -64 -320 0
v -96 -352 0
v -128 -352 0
v -128 -320 0
v -96 -320 0
v -128 -352 0
v -160 -352 0
v -160 -320 0
v -128 -320 0
v 0 -384 0
v -32 -384 0
v -32 -352 0
v 0 -352 0
v -32 -384 0
v -64 -384 0
v -64 -352 0
v -32 -352 0
v -64 -384 0
v -96 -384 0
v -96 -352 0
v -64 -352 0
v -96 -384 0
v -128 -384 0
v -128 -352 0
v -96 -352 0
v -128 -384 0
v -160 -384 0
v -160 -352 0
v -128 -352 0
v 0 -416 0
v -32 -416 0
v -32 -384 0
v 0 -384 0
v -32 -416 0
v -64 -416 0
v -64 -384 0
v -32 -384 0
v -64 -416 0
v -96 -416 0
v -96 -384 0
v -64 -384 0
v -96 -416 0
v -128 -416 0
v -128 -384 0
v -96 -384 0
v -128 -416 0
v -160 -416 0
v -160 -384 0
v -128 -384 0
v 0 -448 0
v -32 -448 0
v -32 -416 0
v 0 -416 0
v -32 -448 0
v -64 -448 0
v -64 -416 0
v -32 -416 0
v -64 -448 0
v -96 -448 0
v -96 -416 0
v -64 -416 0
v -96 -448 0
v -128 -448 0
v -128 -416 0
v -96 -416 0
v -128 -448 0
v -160 -448 0
v -160 -416 0
v -128 -416 0

# Texture cooridinates (Count = 7)
vt 0.0625 0.8125
vt 0.125 0.8125
vt 0.125 0.875
vt 0.0625 0.875
vt 0.1875 0.875
vt 0.1875 0.9375
vt 0.125 0.9375

# Normal
vn 0 0 -1

# Mesh description
g class_mesh_0004

# Faces
f 1/1/1 2/2/1 3/3/1 4/4/1
f 5/1/1 6/2/1 7/3/1 8/4/1
f 9/1/1 10/2/1 11/3/1 12/4/1
f 13/1/1 14/2/1 15/3/1 16/4/1
f 17/1/1 18/2/1 19/3/1 20/4/1
f 21/3/1 22/5/1 23/6/1 24/7/1
f 25/3/1 26/5/1 27/6/1 28/7/1
f 29/3/1 30/5/1 31/6/1 32/7/1
f 33/3/1 34/5/1 35/6/1 36/7/1
f 37/3/1 38/5/1 39/6/1 40/7/1
f 41/3/1 42/5/1 43/6/1 44/7/1
f 45/3/1 46/5/1 47/6/1 48/7/1
f 49/3/1 50/5/1 51/6/1 52/7/1
f 53/3/1 54/5/1 55/6/1 56/7/1
f 57/3/1 58/5/1 59/6/1 60/7/1
f 61/3/1 62/5/1 63/6/1 64/7/1
f 65/3/1 66/5/1 67/6/1 68/7/1
f 69/3/1 70/5/1 71/6/1 72/7/1
f 73/3/1 74/5/1 75/6/1 76/7/1
f 77/3/1 78/5/1 79/6/1 80/7/1
f 81/3/1 82/5/1 83/6/1 84/7/1
f 85/3/1 86/5/1 87/6/1 88/7/1
f 89/3/1 90/5/1 91/6/1 92/7/1
f 93/3/1 94/5/1 95/6/1 96/7/1
f 97/3/1 98/5/1 99/6/1 100/7/1
f 101/3/1 102/5/1 103/6/1 104/7/1
f 105/3/1 106/5/1 107/6/1 108/7/1
f 109/3/1 110/5/1 111/6/1 112/7/1
f 113/3/1 114/5/1 115/6/1 116/7/1
f 117/3/1 118/5/1 119/6/1 120/7/1
f 121/3/1 122/5/1 123/6/1 124/7/1
f 125/3/1 126/5/1 127/6/1 128/7/1
f 129/3/1 130/5/1 131/6/1 132/7/1
f 133/3/1 134/5/1 135/6/1 136/7/1
f 137/3/1 138/5/1 139/6/1 140/7/1
f 141/3/1 142/5/1 143/6/1 144/7/1
f 145/3/1 146/5/1 147/6/1 148/7/1
f 149/3/1 150/5/1 151/6/1 152/7/1
f 153/3/1 154/5/1 155/6/1 156/7/1
f 157/3/1 158/5/1 159/6/1 160/7/1
f 161/3/1 162/5/1 163/6/1 164/7/1
f 165/3/1 166/5/1 167/6/1 168/7/1
f 169/3/1 170/5/1 171/6/1 172/7/1
f 173/3/1 174/5/1 175/6/1 176/7/1
f 177/3/1 178/5/1 179/6/1 180/7/1
f 181/3/1 182/5/1 183/6/1 184/7/1
f 185/3/1 186/5/1 187/6/1 188/7/1
f 189/3/1 190/5/1 191/6/1 192/7/1
f 193/3/1 194/5/1 195/6/1 196/7/1
f 197/3/1 198/5/1 199/6/1 200/7/1
f 201/3/1 202/5/1 203/6/1 204/7/1
f 205/3/1 206/5/1 207/6/1 208/7/1
f 209/3/1 210/5/1 211/6/1 212/7/1
f 213/3/1 214/5/1 215/6/1 216/7/1
f 217/3/1 218/5/1 219/6/1 220/7/1
f 221/3/1 222/5/1 223/6/1 224/7/1
f 225/3/1 226/5/1 227/6/1 228/7/1
f 229/3/1 230/5/1 231/6/1 232/7/1
f 233/3/1 234/5/1 235/6/1 236/7/1
f 237/3/1 238/5/1 239/6/1 240/7/1
f 241/3/1 242/5/1 243/6/1 244/7/1
f 245/3/1 246/5/1 247/6/1 248/7/1
f 249/3/1 250/5/1 251/6/1 252/7/1
f 253/3/1 254/5/1 255/6/1 256/7/1
f 257/3/1 258/5/1 259/6/1 260/7/1
f 261/3/1 262/5/1 263/6/1 264/7/1
f 265/3/1 266/5/1 267/6/1 268/7/1
f 269/3/1 270/5/1 271/6/1 272/7/1
f 273/3/1 274/5/1 275/6/1 276/7/1
f 277/3/1 278/5/1 279/6/1 280/7/1

