# Tiled2Unity generated file. Do not modify by hand.
# Wavefront file for 'class_mesh_0012.obj'

# Vertices (Count = 108)
v -320 -32 0
v -352 -32 0
v -352 0 0
v -320 0 0
v -352 -32 0
v -384 -32 0
v -384 0 0
v -352 0 0
v -384 -32 0
v -416 -32 0
v -416 0 0
v -384 0 0
v -416 -32 0
v -448 -32 0
v -448 0 0
v -416 0 0
v -448 -32 0
v -480 -32 0
v -480 0 0
v -448 0 0
v -480 -32 0
v -512 -32 0
v -512 0 0
v -480 0 0
v -320 -96 0
v -352 -96 0
v -352 -64 0
v -320 -64 0
v -320 -128 0
v -352 -128 0
v -352 -96 0
v -320 -96 0
v -384 -128 0
v -416 -128 0
v -416 -96 0
v -384 -96 0
v -416 -128 0
v -448 -128 0
v -448 -96 0
v -416 -96 0
v -480 -128 0
v -512 -128 0
v -512 -96 0
v -480 -96 0
v -320 -160 0
v -352 -160 0
v -352 -128 0
v -320 -128 0
v -320 -192 0
v -352 -192 0
v -352 -160 0
v -320 -160 0
v -384 -192 0
v -416 -192 0
v -416 -160 0
v -384 -160 0
v -416 -192 0
v -448 -192 0
v -448 -160 0
v -416 -160 0
v -480 -192 0
v -512 -192 0
v -512 -160 0
v -480 -160 0
v -320 -224 0
v -352 -224 0
v -352 -192 0
v -320 -192 0
v -320 -256 0
v -352 -256 0
v -352 -224 0
v -320 -224 0
v -384 -256 0
v -416 -256 0
v -416 -224 0
v -384 -224 0
v -416 -256 0
v -448 -256 0
v -448 -224 0
v -416 -224 0
v -480 -256 0
v -512 -256 0
v -512 -224 0
v -480 -224 0
v -320 -288 0
v -352 -288 0
v -352 -256 0
v -320 -256 0
v -320 -320 0
v -352 -320 0
v -352 -288 0
v -320 -288 0
v -480 -320 0
v -512 -320 0
v -512 -288 0
v -480 -288 0
v -320 -352 0
v -352 -352 0
v -352 -320 0
v -320 -320 0
v -320 -384 0
v -352 -384 0
v -352 -352 0
v -320 -352 0
v -320 -416 0
v -352 -416 0
v -352 -384 0
v -320 -384 0

# Texture cooridinates (Count = 20)
vt 1 0.375
vt 1 0.4375
vt 0.9375 0.4375
vt 0.9375 0.375
vt 0.5 0.875
vt 0.5625 0.875
vt 0.5625 0.9375
vt 0.5 0.9375
vt 0.5 0.8125
vt 0.5625 0.8125
vt 0.8125 0
vt 0.875 0
vt 0.875 0.0625
vt 0.8125 0.0625
vt 0.5 0.75
vt 0.5625 0.75
vt 0.5 0.6875
vt 0.5625 0.6875
vt 0.5 0.625
vt 0.5625 0.625

# Normal
vn 0 0 -1

# Mesh description
g class_mesh_0012

# Faces
f 1/1/1 2/2/1 3/3/1 4/4/1
f 5/1/1 6/2/1 7/3/1 8/4/1
f 9/1/1 10/2/1 11/3/1 12/4/1
f 13/1/1 14/2/1 15/3/1 16/4/1
f 17/1/1 18/2/1 19/3/1 20/4/1
f 21/1/1 22/2/1 23/3/1 24/4/1
f 25/5/1 26/6/1 27/7/1 28/8/1
f 29/9/1 30/10/1 31/6/1 32/5/1
f 33/11/1 34/12/1 35/13/1 36/14/1
f 37/11/1 38/12/1 39/13/1 40/14/1
f 41/11/1 42/12/1 43/13/1 44/14/1
f 45/15/1 46/16/1 47/10/1 48/9/1
f 49/17/1 50/18/1 51/16/1 52/15/1
f 53/11/1 54/12/1 55/13/1 56/14/1
f 57/11/1 58/12/1 59/13/1 60/14/1
f 61/11/1 62/12/1 63/13/1 64/14/1
f 65/19/1 66/20/1 67/18/1 68/17/1
f 69/5/1 70/6/1 71/7/1 72/8/1
f 73/11/1 74/12/1 75/13/1 76/14/1
f 77/11/1 78/12/1 79/13/1 80/14/1
f 81/11/1 82/12/1 83/13/1 84/14/1
f 85/9/1 86/10/1 87/6/1 88/5/1
f 89/15/1 90/16/1 91/10/1 92/9/1
f 93/11/1 94/12/1 95/13/1 96/14/1
f 97/15/1 98/16/1 99/10/1 100/9/1
f 101/17/1 102/18/1 103/16/1 104/15/1
f 105/19/1 106/20/1 107/18/1 108/17/1

