# Tiled2Unity generated file. Do not modify by hand.
# Wavefront file for 'Hill_mesh_0035.obj'

# Vertices (Count = 12)
v -528 -768 0
v -576 -768 0
v -576 -720 0
v -528 -720 0
v -576 -768 0
v -624 -768 0
v -624 -720 0
v -576 -720 0
v -624 -768 0
v -672 -768 0
v -672 -720 0
v -624 -720 0

# Texture cooridinates (Count = 8)
vt 0 0.4375
vt 0.0625 0.4375
vt 0.0625 0.5
vt 0 0.5
vt 0.125 0.4375
vt 0.125 0.5
vt 0.1875 0.4375
vt 0.1875 0.5

# Normal
vn 0 0 -1

# Mesh description
g Hill_mesh_0035

# Faces
f 1/1/1 2/2/1 3/3/1 4/4/1
f 5/2/1 6/5/1 7/6/1 8/3/1
f 9/5/1 10/7/1 11/8/1 12/6/1

