# Tiled2Unity generated file. Do not modify by hand.
# Wavefront file for 'Hill_mesh_0053.obj'

# Vertices (Count = 24)
v -624 -48 0
v -672 -48 0
v -672 0 0
v -624 0 0
v -672 -48 0
v -720 -48 0
v -720 0 0
v -672 0 0
v -720 -48 0
v -768 -48 0
v -768 0 0
v -720 0 0
v -624 -96 0
v -672 -96 0
v -672 -48 0
v -624 -48 0
v -672 -96 0
v -720 -96 0
v -720 -48 0
v -672 -48 0
v -720 -96 0
v -768 -96 0
v -768 -48 0
v -720 -48 0

# Texture cooridinates (Count = 12)
vt 0 0.8125
vt 0.0625 0.8125
vt 0.0625 0.875
vt 0 0.875
vt 0.125 0.8125
vt 0.125 0.875
vt 0.1875 0.8125
vt 0.1875 0.875
vt 0 0.75
vt 0.0625 0.75
vt 0.125 0.75
vt 0.1875 0.75

# Normal
vn 0 0 -1

# Mesh description
g Hill_mesh_0053

# Faces
f 1/1/1 2/2/1 3/3/1 4/4/1
f 5/2/1 6/5/1 7/6/1 8/3/1
f 9/5/1 10/7/1 11/8/1 12/6/1
f 13/9/1 14/10/1 15/2/1 16/1/1
f 17/10/1 18/11/1 19/5/1 20/2/1
f 21/11/1 22/12/1 23/7/1 24/5/1

