# Tiled2Unity generated file. Do not modify by hand.
# Wavefront file for 'Hill_mesh_0059.obj'

# Vertices (Count = 64)
v -480 -48 0
v -528 -48 0
v -528 0 0
v -480 0 0
v -480 -96 0
v -528 -96 0
v -528 -48 0
v -480 -48 0
v -480 -144 0
v -528 -144 0
v -528 -96 0
v -480 -96 0
v -480 -192 0
v -528 -192 0
v -528 -144 0
v -480 -144 0
v -480 -240 0
v -528 -240 0
v -528 -192 0
v -480 -192 0
v -480 -288 0
v -528 -288 0
v -528 -240 0
v -480 -240 0
v -480 -336 0
v -528 -336 0
v -528 -288 0
v -480 -288 0
v -480 -384 0
v -528 -384 0
v -528 -336 0
v -480 -336 0
v -480 -432 0
v -528 -432 0
v -528 -384 0
v -480 -384 0
v -480 -480 0
v -528 -480 0
v -528 -432 0
v -480 -432 0
v -480 -528 0
v -528 -528 0
v -528 -480 0
v -480 -480 0
v -480 -576 0
v -528 -576 0
v -528 -528 0
v -480 -528 0
v -480 -624 0
v -528 -624 0
v -528 -576 0
v -480 -576 0
v -480 -672 0
v -528 -672 0
v -528 -624 0
v -480 -624 0
v -480 -720 0
v -528 -720 0
v -528 -672 0
v -480 -672 0
v -480 -768 0
v -528 -768 0
v -528 -720 0
v -480 -720 0

# Texture cooridinates (Count = 12)
vt 0.375 0.8333333
vt 0.4375 0.8333333
vt 0.4375 0.9166667
vt 0.375 0.9166667
vt 0.375 0.75
vt 0.4375 0.75
vt 0.5 0.9166667
vt 0.5625 0.9166667
vt 0.5625 1
vt 0.5 1
vt 0.4375 1
vt 0.375 1

# Normal
vn 0 0 -1

# Mesh description
g Hill_mesh_0059

# Faces
f 1/1/1 2/2/1 3/3/1 4/4/1
f 5/5/1 6/6/1 7/2/1 8/1/1
f 9/7/1 10/8/1 11/9/1 12/10/1
f 13/7/1 14/8/1 15/9/1 16/10/1
f 17/7/1 18/8/1 19/9/1 20/10/1
f 21/7/1 22/8/1 23/9/1 24/10/1
f 25/7/1 26/8/1 27/9/1 28/10/1
f 29/7/1 30/8/1 31/9/1 32/10/1
f 33/7/1 34/8/1 35/9/1 36/10/1
f 37/7/1 38/8/1 39/9/1 40/10/1
f 41/4/1 42/3/1 43/11/1 44/12/1
f 45/7/1 46/8/1 47/9/1 48/10/1
f 49/7/1 50/8/1 51/9/1 52/10/1
f 53/7/1 54/8/1 55/9/1 56/10/1
f 57/7/1 58/8/1 59/9/1 60/10/1
f 61/7/1 62/8/1 63/9/1 64/10/1

