# Tiled2Unity generated file. Do not modify by hand.
# Wavefront file for 'Hill_mesh_0037.obj'

# Vertices (Count = 20)
v -672 -48 0
v -720 -48 0
v -720 0 0
v -672 0 0
v -672 -384 0
v -720 -384 0
v -720 -336 0
v -672 -336 0
v -672 -432 0
v -720 -432 0
v -720 -384 0
v -672 -384 0
v -672 -480 0
v -720 -480 0
v -720 -432 0
v -672 -432 0
v -672 -528 0
v -720 -528 0
v -720 -480 0
v -672 -480 0

# Texture cooridinates (Count = 4)
vt 0.75 0.4166667
vt 0.8125 0.4166667
vt 0.8125 0.5
vt 0.75 0.5

# Normal
vn 0 0 -1

# Mesh description
g Hill_mesh_0037

# Faces
f 1/1/1 2/2/1 3/3/1 4/4/1
f 5/1/1 6/2/1 7/3/1 8/4/1
f 9/1/1 10/2/1 11/3/1 12/4/1
f 13/1/1 14/2/1 15/3/1 16/4/1
f 17/1/1 18/2/1 19/3/1 20/4/1

