# Tiled2Unity generated file. Do not modify by hand.
# Wavefront file for 'Hill_mesh_0043.obj'

# Vertices (Count = 96)
v -624 -192 0
v -672 -192 0
v -672 -144 0
v -624 -144 0
v -672 -192 0
v -720 -192 0
v -720 -144 0
v -672 -144 0
v -720 -192 0
v -768 -192 0
v -768 -144 0
v -720 -144 0
v -624 -240 0
v -672 -240 0
v -672 -192 0
v -624 -192 0
v -672 -240 0
v -720 -240 0
v -720 -192 0
v -672 -192 0
v -720 -240 0
v -768 -240 0
v -768 -192 0
v -720 -192 0
v -624 -288 0
v -672 -288 0
v -672 -240 0
v -624 -240 0
v -672 -288 0
v -720 -288 0
v -720 -240 0
v -672 -240 0
v -720 -288 0
v -768 -288 0
v -768 -240 0
v -720 -240 0
v -624 -336 0
v -672 -336 0
v -672 -288 0
v -624 -288 0
v -672 -336 0
v -720 -336 0
v -720 -288 0
v -672 -288 0
v -720 -336 0
v -768 -336 0
v -768 -288 0
v -720 -288 0
v -528 -624 0
v -576 -624 0
v -576 -576 0
v -528 -576 0
v -576 -624 0
v -624 -624 0
v -624 -576 0
v -576 -576 0
v -624 -624 0
v -672 -624 0
v -672 -576 0
v -624 -576 0
v -528 -672 0
v -576 -672 0
v -576 -624 0
v -528 -624 0
v -576 -672 0
v -624 -672 0
v -624 -624 0
v -576 -624 0
v -624 -672 0
v -672 -672 0
v -672 -624 0
v -624 -624 0
v -528 -720 0
v -576 -720 0
v -576 -672 0
v -528 -672 0
v -576 -720 0
v -624 -720 0
v -624 -672 0
v -576 -672 0
v -624 -720 0
v -672 -720 0
v -672 -672 0
v -624 -672 0
v -528 -768 0
v -576 -768 0
v -576 -720 0
v -528 -720 0
v -576 -768 0
v -624 -768 0
v -624 -720 0
v -576 -720 0
v -624 -768 0
v -672 -768 0
v -672 -720 0
v -624 -720 0

# Texture cooridinates (Count = 36)
vt 0 0.1875
vt 0.0625 0.1875
vt 0.0625 0.25
vt 0 0.25
vt 0.125 0.1875
vt 0.125 0.25
vt 0.1875 0.1875
vt 0.1875 0.25
vt 0 0.125
vt 0.0625 0.125
vt 0.125 0.125
vt 0.1875 0.125
vt 0 0.0625
vt 0.0625 0.0625
vt 0.125 0.0625
vt 0.1875 0.0625
vt 0 0
vt 0.0625 0
vt 0.125 0
vt 0.1875 0
vt 0 0.4375
vt 0.0625 0.4375
vt 0.0625 0.5
vt 0 0.5
vt 0.125 0.4375
vt 0.125 0.5
vt 0.1875 0.4375
vt 0.1875 0.5
vt 0 0.375
vt 0.0625 0.375
vt 0.125 0.375
vt 0.1875 0.375
vt 0 0.3125
vt 0.0625 0.3125
vt 0.125 0.3125
vt 0.1875 0.3125

# Normal
vn 0 0 -1

# Mesh description
g Hill_mesh_0043

# Faces
f 1/1/1 2/2/1 3/3/1 4/4/1
f 5/2/1 6/5/1 7/6/1 8/3/1
f 9/5/1 10/7/1 11/8/1 12/6/1
f 13/9/1 14/10/1 15/2/1 16/1/1
f 17/10/1 18/11/1 19/5/1 20/2/1
f 21/11/1 22/12/1 23/7/1 24/5/1
f 25/13/1 26/14/1 27/10/1 28/9/1
f 29/14/1 30/15/1 31/11/1 32/10/1
f 33/15/1 34/16/1 35/12/1 36/11/1
f 37/17/1 38/18/1 39/14/1 40/13/1
f 41/18/1 42/19/1 43/15/1 44/14/1
f 45/19/1 46/20/1 47/16/1 48/15/1
f 49/21/1 50/22/1 51/23/1 52/24/1
f 53/22/1 54/25/1 55/26/1 56/23/1
f 57/25/1 58/27/1 59/28/1 60/26/1
f 61/29/1 62/30/1 63/22/1 64/21/1
f 65/30/1 66/31/1 67/25/1 68/22/1
f 69/31/1 70/32/1 71/27/1 72/25/1
f 73/33/1 74/34/1 75/30/1 76/29/1
f 77/34/1 78/35/1 79/31/1 80/30/1
f 81/35/1 82/36/1 83/32/1 84/31/1
f 85/4/1 86/3/1 87/34/1 88/33/1
f 89/3/1 90/6/1 91/35/1 92/34/1
f 93/6/1 94/8/1 95/36/1 96/35/1

