# Tiled2Unity generated file. Do not modify by hand.
# Wavefront file for 'Hill_mesh_0017.obj'

# Vertices (Count = 116)
v -672 -48 0
v -720 -48 0
v -720 0 0
v -672 0 0
v -672 -96 0
v -720 -96 0
v -720 -48 0
v -672 -48 0
v -576 -144 0
v -624 -144 0
v -624 -96 0
v -576 -96 0
v -624 -144 0
v -672 -144 0
v -672 -96 0
v -624 -96 0
v -672 -144 0
v -720 -144 0
v -720 -96 0
v -672 -96 0
v -576 -192 0
v -624 -192 0
v -624 -144 0
v -576 -144 0
v -624 -192 0
v -672 -192 0
v -672 -144 0
v -624 -144 0
v -672 -192 0
v -720 -192 0
v -720 -144 0
v -672 -144 0
v -576 -240 0
v -624 -240 0
v -624 -192 0
v -576 -192 0
v -624 -240 0
v -672 -240 0
v -672 -192 0
v -624 -192 0
v -672 -240 0
v -720 -240 0
v -720 -192 0
v -672 -192 0
v -576 -288 0
v -624 -288 0
v -624 -240 0
v -576 -240 0
v -624 -288 0
v -672 -288 0
v -672 -240 0
v -624 -240 0
v -672 -288 0
v -720 -288 0
v -720 -240 0
v -672 -240 0
v -672 -336 0
v -720 -336 0
v -720 -288 0
v -672 -288 0
v -672 -384 0
v -720 -384 0
v -720 -336 0
v -672 -336 0
v -672 -432 0
v -720 -432 0
v -720 -384 0
v -672 -384 0
v -672 -480 0
v -720 -480 0
v -720 -432 0
v -672 -432 0
v -672 -528 0
v -720 -528 0
v -720 -480 0
v -672 -480 0
v -672 -576 0
v -720 -576 0
v -720 -528 0
v -672 -528 0
v -672 -624 0
v -720 -624 0
v -720 -576 0
v -672 -576 0
v -576 -672 0
v -624 -672 0
v -624 -624 0
v -576 -624 0
v -624 -672 0
v -672 -672 0
v -672 -624 0
v -624 -624 0
v -576 -720 0
v -624 -720 0
v -624 -672 0
v -576 -672 0
v -624 -720 0
v -672 -720 0
v -672 -672 0
v -624 -672 0
v -672 -720 0
v -720 -720 0
v -720 -672 0
v -672 -672 0
v -576 -768 0
v -624 -768 0
v -624 -720 0
v -576 -720 0
v -624 -768 0
v -672 -768 0
v -672 -720 0
v -624 -720 0
v -672 -768 0
v -720 -768 0
v -720 -720 0
v -672 -720 0

# Texture cooridinates (Count = 14)
vt 0.375 0.9166667
vt 0.4375 0.9166667
vt 0.4375 1
vt 0.375 1
vt 0.125 0.9166667
vt 0.1875 0.9166667
vt 0.1875 1
vt 0.125 1
vt 0.25 0.9166667
vt 0.25 1
vt 0.125 0.8333333
vt 0.1875 0.8333333
vt 0.125 0.75
vt 0.1875 0.75

# Normal
vn 0 0 -1

# Mesh description
g Hill_mesh_0017

# Faces
f 1/1/1 2/2/1 3/3/1 4/4/1
f 5/1/1 6/2/1 7/3/1 8/4/1
f 9/5/1 10/6/1 11/7/1 12/8/1
f 13/5/1 14/6/1 15/7/1 16/8/1
f 17/5/1 18/6/1 19/7/1 20/8/1
f 21/5/1 22/6/1 23/7/1 24/8/1
f 25/5/1 26/6/1 27/7/1 28/8/1
f 29/5/1 30/6/1 31/7/1 32/8/1
f 33/5/1 34/6/1 35/7/1 36/8/1
f 37/5/1 38/6/1 39/7/1 40/8/1
f 41/5/1 42/6/1 43/7/1 44/8/1
f 45/5/1 46/6/1 47/7/1 48/8/1
f 49/5/1 50/6/1 51/7/1 52/8/1
f 53/5/1 54/6/1 55/7/1 56/8/1
f 57/5/1 58/6/1 59/7/1 60/8/1
f 61/1/1 62/2/1 63/3/1 64/4/1
f 65/1/1 66/2/1 67/3/1 68/4/1
f 69/1/1 70/2/1 71/3/1 72/4/1
f 73/1/1 74/2/1 75/3/1 76/4/1
f 77/1/1 78/2/1 79/3/1 80/4/1
f 81/1/1 82/2/1 83/3/1 84/4/1
f 85/6/1 86/9/1 87/10/1 88/7/1
f 89/6/1 90/9/1 91/10/1 92/7/1
f 93/6/1 94/9/1 95/10/1 96/7/1
f 97/6/1 98/9/1 99/10/1 100/7/1
f 101/11/1 102/12/1 103/6/1 104/5/1
f 105/6/1 106/9/1 107/10/1 108/7/1
f 109/6/1 110/9/1 111/10/1 112/7/1
f 113/13/1 114/14/1 115/12/1 116/11/1

