# Tiled2Unity generated file. Do not modify by hand.
# Wavefront file for 'Hill_mesh_0054.obj'

# Vertices (Count = 12)
v -384 -48 0
v -432 -48 0
v -432 0 0
v -384 0 0
v -432 -48 0
v -480 -48 0
v -480 0 0
v -432 0 0
v -480 -48 0
v -528 -48 0
v -528 0 0
v -480 0 0

# Texture cooridinates (Count = 8)
vt 0.1875 0.75
vt 0.25 0.75
vt 0.25 0.8125
vt 0.1875 0.8125
vt 0.3125 0.75
vt 0.3125 0.8125
vt 0.375 0.75
vt 0.375 0.8125

# Normal
vn 0 0 -1

# Mesh description
g Hill_mesh_0054

# Faces
f 1/1/1 2/2/1 3/3/1 4/4/1
f 5/2/1 6/5/1 7/6/1 8/3/1
f 9/5/1 10/7/1 11/8/1 12/6/1

