# Tiled2Unity generated file. Do not modify by hand.
# Wavefront file for 'Hill_mesh_0027.obj'

# Vertices (Count = 48)
v -192 -48 0
v -240 -48 0
v -240 0 0
v -192 0 0
v -192 -96 0
v -240 -96 0
v -240 -48 0
v -192 -48 0
v -192 -144 0
v -240 -144 0
v -240 -96 0
v -192 -96 0
v -192 -192 0
v -240 -192 0
v -240 -144 0
v -192 -144 0
v -192 -240 0
v -240 -240 0
v -240 -192 0
v -192 -192 0
v -192 -288 0
v -240 -288 0
v -240 -240 0
v -192 -240 0
v -192 -336 0
v -240 -336 0
v -240 -288 0
v -192 -288 0
v -192 -384 0
v -240 -384 0
v -240 -336 0
v -192 -336 0
v -192 -528 0
v -240 -528 0
v -240 -480 0
v -192 -480 0
v -192 -576 0
v -240 -576 0
v -240 -528 0
v -192 -528 0
v -192 -624 0
v -240 -624 0
v -240 -576 0
v -192 -576 0
v -192 -672 0
v -240 -672 0
v -240 -624 0
v -192 -624 0

# Texture cooridinates (Count = 4)
vt 0 0
vt 1 0
vt 1 1
vt 0 1

# Normal
vn 0 0 -1

# Mesh description
g Hill_mesh_0027

# Faces
f 1/1/1 2/2/1 3/3/1 4/4/1
f 5/1/1 6/2/1 7/3/1 8/4/1
f 9/1/1 10/2/1 11/3/1 12/4/1
f 13/1/1 14/2/1 15/3/1 16/4/1
f 17/1/1 18/2/1 19/3/1 20/4/1
f 21/1/1 22/2/1 23/3/1 24/4/1
f 25/1/1 26/2/1 27/3/1 28/4/1
f 29/1/1 30/2/1 31/3/1 32/4/1
f 33/1/1 34/2/1 35/3/1 36/4/1
f 37/1/1 38/2/1 39/3/1 40/4/1
f 41/1/1 42/2/1 43/3/1 44/4/1
f 45/1/1 46/2/1 47/3/1 48/4/1

