# Tiled2Unity generated file. Do not modify by hand.
# Wavefront file for 'Hill_mesh_0023.obj'

# Vertices (Count = 160)
v -576 -48 0
v -624 -48 0
v -624 0 0
v -576 0 0
v -624 -48 0
v -672 -48 0
v -672 0 0
v -624 0 0
v -672 -48 0
v -720 -48 0
v -720 0 0
v -672 0 0
v -576 -96 0
v -624 -96 0
v -624 -48 0
v -576 -48 0
v -672 -96 0
v -720 -96 0
v -720 -48 0
v -672 -48 0
v -576 -144 0
v -624 -144 0
v -624 -96 0
v -576 -96 0
v -624 -144 0
v -672 -144 0
v -672 -96 0
v -624 -96 0
v -672 -144 0
v -720 -144 0
v -720 -96 0
v -672 -96 0
v -672 -192 0
v -720 -192 0
v -720 -144 0
v -672 -144 0
v -624 -480 0
v -672 -480 0
v -672 -432 0
v -624 -432 0
v -672 -480 0
v -720 -480 0
v -720 -432 0
v -672 -432 0
v -624 -528 0
v -672 -528 0
v -672 -480 0
v -624 -480 0
v -672 -528 0
v -720 -528 0
v -720 -480 0
v -672 -480 0
v -576 -576 0
v -624 -576 0
v -624 -528 0
v -576 -528 0
v -624 -576 0
v -672 -576 0
v -672 -528 0
v -624 -528 0
v -672 -576 0
v -720 -576 0
v -720 -528 0
v -672 -528 0
v -576 -624 0
v -624 -624 0
v -624 -576 0
v -576 -576 0
v -624 -624 0
v -672 -624 0
v -672 -576 0
v -624 -576 0
v -672 -624 0
v -720 -624 0
v -720 -576 0
v -672 -576 0
v -576 -672 0
v -624 -672 0
v -624 -624 0
v -576 -624 0
v -624 -672 0
v -672 -672 0
v -672 -624 0
v -624 -624 0
v -672 -672 0
v -720 -672 0
v -720 -624 0
v -672 -624 0
v -576 -720 0
v -624 -720 0
v -624 -672 0
v -576 -672 0
v -624 -720 0
v -672 -720 0
v -672 -672 0
v -624 -672 0
v -672 -720 0
v -720 -720 0
v -720 -672 0
v -672 -672 0
v 0 -768 0
v -48 -768 0
v -48 -720 0
v 0 -720 0
v -48 -768 0
v -96 -768 0
v -96 -720 0
v -48 -720 0
v -96 -768 0
v -144 -768 0
v -144 -720 0
v -96 -720 0
v -144 -768 0
v -192 -768 0
v -192 -720 0
v -144 -720 0
v -192 -768 0
v -240 -768 0
v -240 -720 0
v -192 -720 0
v -240 -768 0
v -288 -768 0
v -288 -720 0
v -240 -720 0
v -288 -768 0
v -336 -768 0
v -336 -720 0
v -288 -720 0
v -336 -768 0
v -384 -768 0
v -384 -720 0
v -336 -720 0
v -384 -768 0
v -432 -768 0
v -432 -720 0
v -384 -720 0
v -432 -768 0
v -480 -768 0
v -480 -720 0
v -432 -720 0
v -480 -768 0
v -528 -768 0
v -528 -720 0
v -480 -720 0
v -528 -768 0
v -576 -768 0
v -576 -720 0
v -528 -720 0
v -576 -768 0
v -624 -768 0
v -624 -720 0
v -576 -720 0
v -624 -768 0
v -672 -768 0
v -672 -720 0
v -624 -720 0
v -672 -768 0
v -720 -768 0
v -720 -720 0
v -672 -720 0

# Texture cooridinates (Count = 16)
vt 0.1875 0.9166667
vt 0.25 0.9166667
vt 0.25 1
vt 0.1875 1
vt 0.125 0.8333333
vt 0.1875 0.8333333
vt 0.125 0.9166667
vt 0.125 1
vt 0.125 0.75
vt 0.1875 0.75
vt 0.25 0.8333333
vt 0.25 0.75
vt 0 0.6666666
vt 0.0625 0.6666666
vt 0.0625 0.75
vt 0 0.75

# Normal
vn 0 0 -1

# Mesh description
g Hill_mesh_0023

# Faces
f 1/1/1 2/2/1 3/3/1 4/4/1
f 5/1/1 6/2/1 7/3/1 8/4/1
f 9/5/1 10/6/1 11/1/1 12/7/1
f 13/7/1 14/1/1 15/4/1 16/8/1
f 17/9/1 18/10/1 19/6/1 20/5/1
f 21/7/1 22/1/1 23/4/1 24/8/1
f 25/7/1 26/1/1 27/4/1 28/8/1
f 29/5/1 30/6/1 31/1/1 32/7/1
f 33/7/1 34/1/1 35/4/1 36/8/1
f 37/5/1 38/6/1 39/1/1 40/7/1
f 41/6/1 42/11/1 43/2/1 44/1/1
f 45/9/1 46/10/1 47/6/1 48/5/1
f 49/10/1 50/12/1 51/11/1 52/6/1
f 53/5/1 54/6/1 55/1/1 56/7/1
f 57/5/1 58/6/1 59/1/1 60/7/1
f 61/6/1 62/11/1 63/2/1 64/1/1
f 65/9/1 66/10/1 67/6/1 68/5/1
f 69/9/1 70/10/1 71/6/1 72/5/1
f 73/10/1 74/12/1 75/11/1 76/6/1
f 77/5/1 78/6/1 79/1/1 80/7/1
f 81/5/1 82/6/1 83/1/1 84/7/1
f 85/6/1 86/11/1 87/2/1 88/1/1
f 89/5/1 90/6/1 91/1/1 92/7/1
f 93/5/1 94/6/1 95/1/1 96/7/1
f 97/6/1 98/11/1 99/2/1 100/1/1
f 101/13/1 102/14/1 103/15/1 104/16/1
f 105/13/1 106/14/1 107/15/1 108/16/1
f 109/13/1 110/14/1 111/15/1 112/16/1
f 113/13/1 114/14/1 115/15/1 116/16/1
f 117/13/1 118/14/1 119/15/1 120/16/1
f 121/13/1 122/14/1 123/15/1 124/16/1
f 125/13/1 126/14/1 127/15/1 128/16/1
f 129/13/1 130/14/1 131/15/1 132/16/1
f 133/13/1 134/14/1 135/15/1 136/16/1
f 137/13/1 138/14/1 139/15/1 140/16/1
f 141/13/1 142/14/1 143/15/1 144/16/1
f 145/13/1 146/14/1 147/15/1 148/16/1
f 149/13/1 150/14/1 151/15/1 152/16/1
f 153/13/1 154/14/1 155/15/1 156/16/1
f 157/13/1 158/14/1 159/15/1 160/16/1

