# Tiled2Unity generated file. Do not modify by hand.
# Wavefront file for 'Hill_mesh_0033.obj'

# Vertices (Count = 68)
v -528 -48 0
v -576 -48 0
v -576 0 0
v -528 0 0
v -528 -96 0
v -576 -96 0
v -576 -48 0
v -528 -48 0
v -528 -144 0
v -576 -144 0
v -576 -96 0
v -528 -96 0
v -528 -192 0
v -576 -192 0
v -576 -144 0
v -528 -144 0
v -528 -240 0
v -576 -240 0
v -576 -192 0
v -528 -192 0
v 0 -288 0
v -48 -288 0
v -48 -240 0
v 0 -240 0
v -48 -288 0
v -96 -288 0
v -96 -240 0
v -48 -240 0
v -96 -288 0
v -144 -288 0
v -144 -240 0
v -96 -240 0
v -144 -288 0
v -192 -288 0
v -192 -240 0
v -144 -240 0
v -192 -288 0
v -240 -288 0
v -240 -240 0
v -192 -240 0
v -240 -288 0
v -288 -288 0
v -288 -240 0
v -240 -240 0
v -288 -288 0
v -336 -288 0
v -336 -240 0
v -288 -240 0
v -336 -288 0
v -384 -288 0
v -384 -240 0
v -336 -240 0
v -384 -288 0
v -432 -288 0
v -432 -240 0
v -384 -240 0
v -432 -288 0
v -480 -288 0
v -480 -240 0
v -432 -240 0
v -480 -288 0
v -528 -288 0
v -528 -240 0
v -480 -240 0
v -528 -288 0
v -576 -288 0
v -576 -240 0
v -528 -240 0

# Texture cooridinates (Count = 8)
vt 0.6666667 0.3333333
vt 1 0.3333333
vt 1 0.6666666
vt 0.6666667 0.6666666
vt 0.3333333 0
vt 0.6666667 0
vt 0.3333333 0.3333333
vt 1 0

# Normal
vn 0 0 -1

# Mesh description
g Hill_mesh_0033

# Faces
f 1/1/1 2/2/1 3/3/1 4/4/1
f 5/1/1 6/2/1 7/3/1 8/4/1
f 9/1/1 10/2/1 11/3/1 12/4/1
f 13/1/1 14/2/1 15/3/1 16/4/1
f 17/1/1 18/2/1 19/3/1 20/4/1
f 21/5/1 22/6/1 23/1/1 24/7/1
f 25/5/1 26/6/1 27/1/1 28/7/1
f 29/5/1 30/6/1 31/1/1 32/7/1
f 33/5/1 34/6/1 35/1/1 36/7/1
f 37/5/1 38/6/1 39/1/1 40/7/1
f 41/5/1 42/6/1 43/1/1 44/7/1
f 45/5/1 46/6/1 47/1/1 48/7/1
f 49/5/1 50/6/1 51/1/1 52/7/1
f 53/5/1 54/6/1 55/1/1 56/7/1
f 57/5/1 58/6/1 59/1/1 60/7/1
f 61/5/1 62/6/1 63/1/1 64/7/1
f 65/6/1 66/8/1 67/2/1 68/1/1

