# Tiled2Unity generated file. Do not modify by hand.
# Wavefront file for 'Hill_mesh_0046.obj'

# Vertices (Count = 60)
v -624 -48 0
v -672 -48 0
v -672 0 0
v -624 0 0
v -672 -48 0
v -720 -48 0
v -720 0 0
v -672 0 0
v -720 -48 0
v -768 -48 0
v -768 0 0
v -720 0 0
v -576 -480 0
v -624 -480 0
v -624 -432 0
v -576 -432 0
v -624 -480 0
v -672 -480 0
v -672 -432 0
v -624 -432 0
v -672 -480 0
v -720 -480 0
v -720 -432 0
v -672 -432 0
v -576 -528 0
v -624 -528 0
v -624 -480 0
v -576 -480 0
v -624 -528 0
v -672 -528 0
v -672 -480 0
v -624 -480 0
v -672 -528 0
v -720 -528 0
v -720 -480 0
v -672 -480 0
v -576 -576 0
v -624 -576 0
v -624 -528 0
v -576 -528 0
v -624 -576 0
v -672 -576 0
v -672 -528 0
v -624 -528 0
v -672 -576 0
v -720 -576 0
v -720 -528 0
v -672 -528 0
v -576 -624 0
v -624 -624 0
v -624 -576 0
v -576 -576 0
v -624 -624 0
v -672 -624 0
v -672 -576 0
v -624 -576 0
v -672 -624 0
v -720 -624 0
v -720 -576 0
v -672 -576 0

# Texture cooridinates (Count = 20)
vt 0 0.25
vt 0.0625 0.25
vt 0.0625 0.3125
vt 0 0.3125
vt 0.125 0.25
vt 0.125 0.3125
vt 0.1875 0.25
vt 0.1875 0.3125
vt 0 0.4375
vt 0.0625 0.4375
vt 0.0625 0.5
vt 0 0.5
vt 0.125 0.4375
vt 0.125 0.5
vt 0.1875 0.4375
vt 0.1875 0.5
vt 0 0.375
vt 0.0625 0.375
vt 0.125 0.375
vt 0.1875 0.375

# Normal
vn 0 0 -1

# Mesh description
g Hill_mesh_0046

# Faces
f 1/1/1 2/2/1 3/3/1 4/4/1
f 5/2/1 6/5/1 7/6/1 8/3/1
f 9/5/1 10/7/1 11/8/1 12/6/1
f 13/9/1 14/10/1 15/11/1 16/12/1
f 17/10/1 18/13/1 19/14/1 20/11/1
f 21/13/1 22/15/1 23/16/1 24/14/1
f 25/17/1 26/18/1 27/10/1 28/9/1
f 29/18/1 30/19/1 31/13/1 32/10/1
f 33/19/1 34/20/1 35/15/1 36/13/1
f 37/4/1 38/3/1 39/18/1 40/17/1
f 41/3/1 42/6/1 43/19/1 44/18/1
f 45/6/1 46/8/1 47/20/1 48/19/1
f 49/1/1 50/2/1 51/3/1 52/4/1
f 53/2/1 54/5/1 55/6/1 56/3/1
f 57/5/1 58/7/1 59/8/1 60/6/1

