# Tiled2Unity generated file. Do not modify by hand.
# Wavefront file for 'Hill_mesh_0030.obj'

# Vertices (Count = 12)
v -720 -480 0
v -768 -480 0
v -768 -432 0
v -720 -432 0
v -720 -528 0
v -768 -528 0
v -768 -480 0
v -720 -480 0
v -720 -576 0
v -768 -576 0
v -768 -528 0
v -720 -528 0

# Texture cooridinates (Count = 8)
vt 0 0.6666666
vt 0.3333333 0.6666666
vt 0.3333333 1
vt 0 1
vt 0 0.3333333
vt 0.3333333 0.3333333
vt 0 0
vt 0.3333333 0

# Normal
vn 0 0 -1

# Mesh description
g Hill_mesh_0030

# Faces
f 1/1/1 2/2/1 3/3/1 4/4/1
f 5/5/1 6/6/1 7/2/1 8/1/1
f 9/7/1 10/8/1 11/6/1 12/5/1

