# Tiled2Unity generated file. Do not modify by hand.
# Wavefront file for 'Hill_mesh_0031.obj'

# Vertices (Count = 36)
v 0 -480 0
v -48 -480 0
v -48 -432 0
v 0 -432 0
v -48 -480 0
v -96 -480 0
v -96 -432 0
v -48 -432 0
v -144 -480 0
v -192 -480 0
v -192 -432 0
v -144 -432 0
v 0 -528 0
v -48 -528 0
v -48 -480 0
v 0 -480 0
v -48 -528 0
v -96 -528 0
v -96 -480 0
v -48 -480 0
v -144 -528 0
v -192 -528 0
v -192 -480 0
v -144 -480 0
v 0 -576 0
v -48 -576 0
v -48 -528 0
v 0 -528 0
v -48 -576 0
v -96 -576 0
v -96 -528 0
v -48 -528 0
v -144 -576 0
v -192 -576 0
v -192 -528 0
v -144 -528 0

# Texture cooridinates (Count = 12)
vt 0.3333333 0.6666666
vt 0.6666667 0.6666666
vt 0.6666667 1
vt 0.3333333 1
vt 1 0.6666666
vt 1 1
vt 0.3333333 0.3333333
vt 0.6666667 0.3333333
vt 1 0.3333333
vt 0.3333333 0
vt 0.6666667 0
vt 1 0

# Normal
vn 0 0 -1

# Mesh description
g Hill_mesh_0031

# Faces
f 1/1/1 2/2/1 3/3/1 4/4/1
f 5/2/1 6/5/1 7/6/1 8/3/1
f 9/2/1 10/5/1 11/6/1 12/3/1
f 13/7/1 14/8/1 15/2/1 16/1/1
f 17/8/1 18/9/1 19/5/1 20/2/1
f 21/8/1 22/9/1 23/5/1 24/2/1
f 25/10/1 26/11/1 27/8/1 28/7/1
f 29/11/1 30/12/1 31/9/1 32/8/1
f 33/11/1 34/12/1 35/9/1 36/8/1

