# Tiled2Unity generated file. Do not modify by hand.
# Wavefront file for 'Hill_mesh_0032.obj'

# Vertices (Count = 12)
v -480 -672 0
v -528 -672 0
v -528 -624 0
v -480 -624 0
v -480 -720 0
v -528 -720 0
v -528 -672 0
v -480 -672 0
v -480 -768 0
v -528 -768 0
v -528 -720 0
v -480 -720 0

# Texture cooridinates (Count = 4)
vt 0 0
vt 1 0
vt 1 1
vt 0 1

# Normal
vn 0 0 -1

# Mesh description
g Hill_mesh_0032

# Faces
f 1/1/1 2/2/1 3/3/1 4/4/1
f 5/1/1 6/2/1 7/3/1 8/4/1
f 9/1/1 10/2/1 11/3/1 12/4/1

